<svg class="svg-tournament" xmlns="http://www.w3.org/2000/svg" width="1784" height="1121" fill="none" viewBox="0 0 1784 1121">
  <g class="valleyball">
    <path fill="#F6F1EE" d="M0 0h1784v1121H0z" class="èæ¯"/>
    <g class="valleyball-female">
      <g class="round_final">
        <mask id="a" fill="#fff" class="a">
          <path d="M1045 443h251v95h-251v-95Z"/>
        </mask>
        <path fill="#F6F1EE" d="M1045 443h251v95h-251v-95Z"/>
        <path fill="#6C5F5B" d="M1290 443v95h12v-95h-12Z" mask="url(#a)"/>
      </g>
      <g class="step2">
        <g class="round3">
          <g class="round3B">
            <path fill="#F6F1EE" d="M1290 541h100v212h-100V541Z"/>
            <path fill="#6C5F5B" d="M1390 541h3v-3h-3v3Zm-100 3h100v-6h-100v6Zm97-3v212h6V541h-6Z"/>
          </g>
          <g class="round3A">
            <path fill="#F6F1EE" d="M1190 541h100v212h-100V541Z"/>
            <path fill="#6C5F5B" d="M1190 541v-3h-3v3h3Zm0 3h100v-6h-100v6Zm3 209V541h-6v212h6Z"/>
          </g>
        </g>
      </g>
      <g class="step1">
        <g class="round2">
          <g class="round2B">
            <path fill="#F6F1EE" d="M1395 647h50v106h-50V647Z"/>
            <path fill="#6C5F5B" d="M1445 647h3v-3h-3v3Zm-50 3h50v-6h-50v6Zm47-3v106h6V647h-6Z"/>
          </g>
          <g class="round2A">
            <path fill="#F6F1EE" d="M1345 647h50v106h-50V647Z"/>
            <path fill="#6C5F5B" d="M1345 647v-3h-3v3h3Zm0 3h50v-6h-50v6Zm3 103V647h-6v106h6Z"/>
          </g>
        </g>
        <g class="round1">
          <g class="round1B">
            <path fill="#F6F1EE" d="M1190 647h50v106h-50V647Z"/>
            <path fill="#6C5F5B" d="M1240 647h3v-3h-3v3Zm-50 3h50v-6h-50v6Zm47-3v106h6V647h-6Z"/>
          </g>
          <g class="round1A">
            <path fill="#F6F1EE" d="M1140 647h50v106h-50V647Z"/>
            <path fill="#6C5F5B" d="M1140 647v-3h-3v3h3Zm0 3h50v-6h-50v6Zm3 103V647h-6v106h6Z"/>
          </g>
        </g>
      </g>
      <g class="çå">
        <path fill="#ED7D31" d="M1319.96 416.549c2.24 0 3.74-2.187 3.74-4.887v-39.007c0-1.977-.76-3.76-1.91-4.514-1.16-.759-2.49-.34-3.38 1.058l-5.96 9.408c-1.22 1.909-3.18 1.909-4.39 0l-11.52-18.176c-1.21-1.908-3.17-1.908-4.38 0l-11.53 18.176c-1.2 1.908-3.17 1.908-4.38 0l-5.96-9.408c-.89-1.398-2.22-1.818-3.38-1.058-1.15.754-1.91 2.537-1.91 4.514v39.007c0 2.7 1.5 4.887 3.74 4.887h51.22Z" class="Vector"/>
      </g>
      <path fill="#000" d="M998.8 194.4c-.6.1-1.117.033-1.55-.2-.4-.2-.65-.567-.75-1.1-.067-.5.05-.933.35-1.3s.75-.583 1.35-.65c7.97-1.233 14.22-3.917 18.75-8.05-.93-.5-1.87-.967-2.8-1.4a38.69 38.69 0 0 0-2.75-1.25c-1.77-.767-3.07-1.583-3.9-2.45-.8-.9-1.18-1.967-1.15-3.2.03-1.233.45-2.733 1.25-4.5.37-.767.72-1.55 1.05-2.35.33-.833.67-1.667 1-2.5H996.4c-.433 0-.8-.133-1.1-.4-.267-.3-.4-.667-.4-1.1 0-.433.133-.8.4-1.1.3-.3.667-.45 1.1-.45h14.4c.77-2.2 1.48-4.35 2.15-6.45.7-2.1 1.27-3.95 1.7-5.55.13-.467.4-.817.8-1.05.43-.233.88-.267 1.35-.1.47.133.8.383 1 .75.23.367.28.783.15 1.25-.47 1.6-1.03 3.367-1.7 5.3-.63 1.933-1.32 3.883-2.05 5.85h25.25c.43 0 .8.15 1.1.45.3.3.45.667.45 1.1 0 .433-.15.8-.45 1.1-.3.267-.67.4-1.1.4h-9.9c-.7 3.467-1.67 6.617-2.9 9.45-1.2 2.8-2.72 5.3-4.55 7.5 2.47 1.333 4.87 2.75 7.2 4.25s4.5 3 6.5 4.5c.4.3.65.7.75 1.2.1.533-.02 1-.35 1.4-.33.367-.77.583-1.3.65-.5.067-.95-.067-1.35-.4-1.93-1.567-4.08-3.133-6.45-4.7-2.33-1.6-4.73-3.117-7.2-4.55-2.5 2.433-5.5 4.433-9 6-3.5 1.567-7.53 2.783-12.1 3.65Zm20.35-13.6c3.37-3.9 5.7-9.017 7-15.35h-13.1c-.4 1.033-.8 2.033-1.2 3-.4.933-.8 1.833-1.2 2.7-.83 1.867-1.12 3.25-.85 4.15.27.9 1.25 1.717 2.95 2.45 2.07.9 4.2 1.917 6.4 3.05Zm41.1 13.55c-.47 0-.87-.15-1.2-.45-.33-.267-.5-.65-.5-1.15-.03-.467.12-.85.45-1.15.37-.3.77-.45 1.2-.45 2.37-.033 4.22-.417 5.55-1.15 1.37-.733 2.33-1.883 2.9-3.45.57-1.567.85-3.6.85-6.1 0-2.5-.35-4.867-1.05-7.1h-22c-.43 0-.8-.133-1.1-.4-.3-.3-.45-.667-.45-1.1 0-.433.15-.8.45-1.1.3-.3.67-.45 1.1-.45h20.8c-.6-1.2-1.3-2.333-2.1-3.4a16.32 16.32 0 0 0-2.8-2.9c-.33-.3-.53-.667-.6-1.1-.03-.433.1-.8.4-1.1.37-.367.75-.55 1.15-.55.43 0 .82.133 1.15.4.3.233.6.483.9.75.3.267.57.533.8.8.93-.5 2-1.083 3.2-1.75 1.23-.667 2.4-1.317 3.5-1.95 1.13-.667 2.02-1.2 2.65-1.6 1.07-.7 1.52-1.367 1.35-2-.13-.667-.83-1-2.1-1h-23.1c-.43 0-.8-.133-1.1-.4-.27-.3-.4-.667-.4-1.1 0-.433.13-.783.4-1.05.3-.3.67-.45 1.1-.45h24c1.47 0 2.63.3 3.5.9.87.567 1.4 1.3 1.6 2.2.23.867.13 1.767-.3 2.7-.43.933-1.23 1.733-2.4 2.4-1.33.767-2.93 1.65-4.8 2.65-1.83 1-3.55 1.917-5.15 2.75a23.7 23.7 0 0 1 2.65 4.8h18.8c.43 0 .8.15 1.1.45.3.3.45.667.45 1.1 0 .433-.15.8-.45 1.1-.3.267-.67.4-1.1.4h-17.8c.63 2.3.95 4.7.95 7.2 0 4.733-.95 8.217-2.85 10.45-1.9 2.233-5.1 3.35-9.6 3.35Zm38.5-12.55c-.33.233-.73.317-1.2.25a1.562 1.562 0 0 1-1.05-.65 1.688 1.688 0 0 1-.25-1.2c.07-.467.28-.817.65-1.05 1.93-1.367 3.8-2.983 5.6-4.85a53.16 53.16 0 0 0 4.8-5.7c1.43-1.967 2.53-3.75 3.3-5.35.2-.4.5-.667.9-.8a1.79 1.79 0 0 1 1.25.05c.4.2.67.517.8.95.17.4.15.8-.05 1.2-.6 1.233-1.43 2.617-2.5 4.15a58.095 58.095 0 0 1-3.55 4.7 60.816 60.816 0 0 1-4.25 4.6c-1.5 1.433-2.98 2.667-4.45 3.7Zm39.2-.45c-.37.233-.77.3-1.2.2a1.753 1.753 0 0 1-1-.75c-.63-1.1-1.45-2.317-2.45-3.65a57.619 57.619 0 0 0-3.25-4.15 72.17 72.17 0 0 0-3.65-4.15 54.72 54.72 0 0 0-3.7-3.65c-.33-.3-.5-.667-.5-1.1 0-.467.15-.867.45-1.2.3-.333.67-.5 1.1-.5.47-.033.87.117 1.2.45 1.17 1.1 2.38 2.333 3.65 3.7a88.754 88.754 0 0 1 3.75 4.2 77.243 77.243 0 0 1 3.5 4.35c1.07 1.433 1.97 2.783 2.7 4.05.23.367.28.767.15 1.2-.1.433-.35.767-.75 1Zm2.2-22.45c-.23.233-.55.35-.95.35-.37 0-.68-.133-.95-.4-.5-.533-1.17-1.15-2-1.85a29.011 29.011 0 0 0-2.15-1.75 1.28 1.28 0 0 1-.5-.8c-.07-.367.02-.683.25-.95.23-.3.52-.467.85-.5.33-.033.67.05 1 .25.4.233.87.583 1.4 1.05.57.467 1.13.95 1.7 1.45.57.467 1.02.867 1.35 1.2.27.233.4.55.4.95 0 .4-.13.733-.4 1Zm-3.85 4.2c-.27.233-.6.333-1 .3a1.292 1.292 0 0 1-.9-.45c-.47-.567-1.1-1.233-1.9-2-.8-.767-1.48-1.383-2.05-1.85a1.28 1.28 0 0 1-.5-.8c-.03-.367.07-.683.3-.95.27-.3.57-.45.9-.45.37-.033.68.067.95.3.37.267.82.65 1.35 1.15a33.3 33.3 0 0 1 1.6 1.5c.57.5 1.02.933 1.35 1.3.27.267.38.6.35 1-.03.367-.18.683-.45.95Zm29.9 21.4c-4.23 1.467-7.53 1.633-9.9.5-2.37-1.167-3.55-3.767-3.55-7.8v-16.5c0-.433.15-.8.45-1.1.33-.333.72-.5 1.15-.5.47 0 .85.167 1.15.5.3.3.45.667.45 1.1v16.5c0 2.6.72 4.233 2.15 4.9 1.43.667 3.77.467 7-.6 3.27-1.1 6.52-2.517 9.75-4.25 3.23-1.767 6.27-3.7 9.1-5.8a1.57 1.57 0 0 1 1.2-.3c.43.033.78.233 1.05.6.27.333.37.733.3 1.2-.03.433-.23.783-.6 1.05-2.8 2.133-5.92 4.117-9.35 5.95a79.706 79.706 0 0 1-10.35 4.55Zm36-10.6c-.43 0-.82-.167-1.15-.5-.3-.333-.45-.717-.45-1.15 0-.433.15-.8.45-1.1.33-.333.72-.5 1.15-.5h31.65c.43 0 .8.167 1.1.5.33.3.5.667.5 1.1 0 .433-.17.817-.5 1.15-.3.333-.67.5-1.1.5h-31.65Z" class="å¥³å­ãã¬ã¼"/>
       <g class="class">
        <path fill="#000" d="M1124.25 810.096a1.002 1.002 0 0 1-.39-.672c-.02-.299.05-.555.23-.768.96-1.216 1.84-2.56 2.65-4.032a42.929 42.929 0 0 0 2.24-4.672 53.596 53.596 0 0 0 1.7-4.864c-.88.085-1.78.181-2.72.288-.94.085-1.9.181-2.88.288-.28.021-.53-.053-.74-.224a1.03 1.03 0 0 1-.38-.672 1.02 1.02 0 0 1 .22-.736c.17-.235.4-.363.67-.384 1.11-.107 2.2-.203 3.27-.288 1.06-.107 2.1-.192 3.1-.256.58-2.325.92-4.448 1.03-6.368.02-.299.13-.533.35-.704a.944.944 0 0 1 .73-.256c.28.021.52.139.71.352.19.192.27.427.25.704-.06.896-.18 1.867-.35 2.912a33.89 33.89 0 0 1-.64 3.232c2.99-.128 5.04.469 6.15 1.792 1.13 1.323 1.48 3.499 1.05 6.528-.34 2.432-.85 4.32-1.53 5.664-.69 1.344-1.58 2.251-2.69 2.72-1.09.448-2.45.565-4.07.352-.27-.043-.5-.171-.67-.384a.92.92 0 0 1-.19-.736c.04-.299.17-.533.38-.704a.918.918 0 0 1 .74-.192c.77.107 1.47.117 2.11.032a3.073 3.073 0 0 0 1.7-.8c.51-.469.95-1.195 1.31-2.176.36-1.003.66-2.357.9-4.064.21-1.536.2-2.763-.04-3.68-.21-.939-.74-1.6-1.6-1.984-.83-.384-2.08-.523-3.74-.416h-.32a59.23 59.23 0 0 1-1.79 5.344 47.667 47.667 0 0 1-2.4 5.152 31.343 31.343 0 0 1-2.95 4.48.913.913 0 0 1-.64.384.983.983 0 0 1-.76-.192Zm25.34-9.536a.963.963 0 0 1-.77.064.992.992 0 0 1-.61-.48c-.4-.747-.88-1.515-1.44-2.304a22.937 22.937 0 0 0-1.79-2.304 24.488 24.488 0 0 0-1.82-1.92.802.802 0 0 1-.32-.672c0-.299.09-.544.29-.736.19-.213.42-.32.7-.32.28-.021.52.064.74.256.64.597 1.29 1.301 1.95 2.112a31.77 31.77 0 0 1 1.92 2.464c.62.853 1.14 1.675 1.57 2.464.12.235.14.491.06.768-.09.256-.25.459-.48.608Zm-12.35 45.76c-1.35 0-2.49-.32-3.43-.96-.91-.661-1.37-1.653-1.37-2.976 0-1.259.42-2.24 1.28-2.944.87-.704 2.06-1.056 3.55-1.056.94 0 1.87.096 2.78.288-.02-.917-.05-1.92-.09-3.008-.02-1.109-.06-2.24-.1-3.392-1.13.085-2.22.149-3.26.192-1.05.021-1.93.021-2.66 0a.898.898 0 0 1-.7-.32.967.967 0 0 1-.26-.736c.02-.277.13-.512.32-.704a.954.954 0 0 1 .74-.256 59.654 59.654 0 0 0 5.79-.16c-.02-.853-.04-1.664-.06-2.432-.03-.789-.04-1.504-.04-2.144-.94.064-1.86.117-2.78.16-.92.021-1.78.032-2.59.032-.28 0-.53-.096-.74-.288a.968.968 0 0 1-.29-.704c0-.299.1-.544.29-.736.21-.192.46-.288.74-.288 1.11 0 2.3-.032 3.58-.096 1.3-.064 2.57-.16 3.81-.288 1.24-.128 2.3-.267 3.2-.416.28-.043.53.021.77.192.23.149.36.363.38.64.04.277-.01.533-.16.768a.9.9 0 0 1-.67.416c-.49.085-1.04.16-1.63.224-.6.064-1.23.128-1.89.192.02.704.03 1.451.03 2.24 0 .768.01 1.557.03 2.368.84-.064 1.62-.139 2.37-.224.77-.107 1.43-.203 1.99-.288.29-.043.55.021.76.192.24.149.38.363.42.64.04.277-.02.533-.19.768a.934.934 0 0 1-.64.384c-.6.085-1.3.181-2.11.288-.82.085-1.66.171-2.53.256.04 1.301.07 2.56.09 3.776.05 1.216.08 2.293.1 3.232 1.26.363 2.44.821 3.55 1.376 1.13.555 2.11 1.141 2.95 1.76a.99.99 0 0 1 .41.672c.07.277.01.533-.16.768-.17.213-.39.341-.67.384-.28.043-.53-.011-.77-.16-.66-.491-1.45-.981-2.37-1.472-.91-.491-1.87-.917-2.88-1.28v.544c0 1.493-.39 2.635-1.18 3.424-.77.768-2.01 1.152-3.71 1.152Zm-10.75.288a.997.997 0 0 1-.77-.192c-.22-.149-.34-.363-.39-.64a33.85 33.85 0 0 1-.32-2.848c-.06-1.195-.1-2.528-.12-4-.03-1.472-.03-2.997 0-4.576.04-1.579.1-3.115.19-4.608.08-1.515.2-2.891.35-4.128.15-1.259.32-2.283.51-3.072a1 1 0 0 1 .45-.64.971.971 0 0 1 .77-.128c.27.085.48.245.61.48.14.235.19.491.12.768-.19.811-.36 1.824-.51 3.04a88.201 88.201 0 0 0-.32 3.936 149.14 149.14 0 0 0-.19 4.416c-.02 1.493-.02 2.944 0 4.352.02 1.408.06 2.688.13 3.84.08 1.152.19 2.091.32 2.816.04.277-.01.533-.16.768a.92.92 0 0 1-.67.416Zm10.75-2.176c1.04 0 1.78-.213 2.21-.64.44-.448.67-1.131.67-2.048v-1.12c-.49-.107-.98-.192-1.47-.256-.47-.064-.94-.096-1.41-.096-.98 0-1.7.203-2.15.608-.44.384-.67.885-.67 1.504 0 .661.25 1.173.74 1.536.49.341 1.18.512 2.08.512Zm12.57-14.624a.768.768 0 0 1-.6.192.894.894 0 0 1-.61-.32c-.28-.363-.66-.8-1.15-1.312-.47-.512-.89-.928-1.25-1.248a.81.81 0 0 1-.29-.544.735.735 0 0 1 .19-.576.791.791 0 0 1 .58-.256c.23-.021.45.043.64.192.23.192.51.448.83.768.32.32.64.651.96.992.34.341.62.629.83.864.17.192.24.405.19.64-.04.235-.15.437-.32.608Zm2.56-2.56a.882.882 0 0 1-.6.224.947.947 0 0 1-.61-.288c-.3-.363-.72-.789-1.25-1.28-.51-.491-.95-.875-1.31-1.152a.812.812 0 0 1-.32-.512.78.78 0 0 1 .19-.608c.15-.192.33-.288.54-.288.24-.021.45.043.64.192.24.171.53.405.87.704.36.299.71.608 1.05.928.37.32.65.597.87.832.17.171.24.384.22.64a.959.959 0 0 1-.29.608Zm-19.71 56.576c-.25.107-.52.107-.8 0a.966.966 0 0 1-.54-.544 1.01 1.01 0 0 1 0-.8c.1-.256.3-.437.57-.544 2.07-.875 3.62-1.984 4.64-3.328 1.03-1.344 1.64-2.827 1.83-4.448-.81.939-1.87 1.408-3.17 1.408-1.43 0-2.56-.363-3.39-1.088-.81-.747-1.22-1.792-1.22-3.136 0-1.323.43-2.389 1.28-3.2.85-.832 1.99-1.248 3.39-1.248.75 0 1.45.139 2.12.416-.07-.619-.13-1.259-.2-1.92a64.76 64.76 0 0 1-.09-2.016c-2.37.085-4.73.213-7.07.384-2.33.149-4.48.32-6.47.512a.99.99 0 0 1-.73-.224 1.002 1.002 0 0 1-.39-.672.983.983 0 0 1 .23-.736.872.872 0 0 1 .67-.384c1.96-.171 4.14-.331 6.53-.48 2.38-.149 4.8-.267 7.23-.352V857.2a.93.93 0 0 1 .29-.704c.19-.213.42-.32.7-.32.3 0 .54.107.74.32.19.192.28.427.28.704v4.16c1.97-.064 3.84-.107 5.64-.128 1.81-.043 3.44-.053 4.89-.032.28 0 .51.107.71.32.19.192.27.427.25.704 0 .277-.11.523-.32.736a.857.857 0 0 1-.7.256c-1.47-.043-3.11-.053-4.9-.032-1.79 0-3.65.032-5.57.096.02.96.06 1.931.1 2.912.06.96.12 1.877.16 2.752.32.491.56 1.067.74 1.728.19.64.28 1.365.28 2.176 0 2.389-.66 4.565-1.98 6.528-1.3 1.963-3.21 3.445-5.73 4.448Zm2.53-10.08c.75-.021 1.34-.245 1.79-.672.47-.448.71-1.067.71-1.856 0-.213-.02-.437-.04-.672 0-.235-.01-.469-.03-.704-.53-.704-1.32-1.056-2.37-1.056-.79 0-1.45.224-1.98.672-.51.427-.77 1.035-.77 1.824.02.789.27 1.408.74 1.856.47.427 1.12.629 1.95.608Z" class="ãã¼ã"/>
        <path fill="#000" d="M1443.33 811.216c-.27 0-.5-.096-.67-.288a.867.867 0 0 1-.25-.64c0-.256.08-.48.25-.672.17-.192.4-.288.67-.288h3.72V789.52c0-1.152.14-2.059.44-2.72.32-.661.86-1.131 1.6-1.408.75-.277 1.75-.416 3.01-.416h.99c1.28 0 2.3.139 3.04.416.75.277 1.27.747 1.57 1.408.32.661.48 1.568.48 2.72v19.808h2.75c.28 0 .5.096.68.288.17.192.25.416.25.672 0 .256-.08.469-.25.64a.883.883 0 0 1-.68.288h-17.6Zm-4.22 1.376a.907.907 0 0 1-.67-.288.865.865 0 0 1-.29-.672V799.28a39.754 39.754 0 0 1-2.27 3.776c-.83 1.259-1.61 2.325-2.34 3.2-.17.213-.39.341-.67.384-.26.021-.49-.043-.7-.192a.872.872 0 0 1-.36-.64.922.922 0 0 1 .23-.704c.62-.661 1.3-1.504 2.05-2.528a47.42 47.42 0 0 0 2.14-3.296c.7-1.173 1.27-2.261 1.7-3.264h-4.84c-.27 0-.5-.085-.67-.256a.977.977 0 0 1-.25-.672c0-.235.08-.437.25-.608.17-.192.4-.288.67-.288h5.06v-10.08c0-.299.1-.533.29-.704a.963.963 0 0 1 .67-.256c.28 0 .5.085.67.256.19.171.29.405.29.704v10.08h4.58c.27 0 .5.096.67.288.17.171.25.373.25.608 0 .256-.08.48-.25.672-.17.171-.4.256-.67.256h-4.58v1.152c.23.341.54.757.93 1.248.4.491.83 1.003 1.28 1.536.47.512.91 1.003 1.34 1.472.43.448.8.821 1.12 1.12.21.192.32.427.32.704a.93.93 0 0 1-.29.704 1.06 1.06 0 0 1-.73.288.98.98 0 0 1-.67-.352c-.41-.448-.92-1.056-1.54-1.824a65.891 65.891 0 0 1-1.76-2.336v11.904c0 .277-.1.501-.29.672a.847.847 0 0 1-.67.288Zm9.89-3.264h7.13v-6.208H1449v6.208Zm0-8.096h7.13v-6.208H1449v6.208Zm0-8.064h7.13v-3.584c0-1.067-.21-1.771-.64-2.112-.42-.363-1.27-.544-2.52-.544h-.77c-1.28 0-2.14.181-2.56.544-.43.341-.64 1.045-.64 2.112v3.584Zm-7.3-.736a.932.932 0 0 1-.45-.48.827.827 0 0 1 .04-.672c.21-.384.44-.843.7-1.376.28-.555.53-1.12.77-1.696.25-.576.45-1.077.57-1.504a.901.901 0 0 1 .48-.512c.24-.128.46-.139.68-.032.25.085.43.245.54.48.11.213.12.437.03.672-.15.427-.36.939-.64 1.536a44.4 44.4 0 0 1-.8 1.728c-.28.555-.51 1.024-.7 1.408a.909.909 0 0 1-.51.448 1.02 1.02 0 0 1-.71 0Zm-5.73 0a.993.993 0 0 1-.7 0c-.21-.107-.36-.288-.45-.544-.15-.427-.34-.907-.57-1.44a37.05 37.05 0 0 0-.74-1.568c-.26-.533-.48-.981-.67-1.344a.792.792 0 0 1 0-.64c.1-.213.26-.363.48-.448a.82.82 0 0 1 .67-.032c.23.064.39.213.48.448.19.384.43.853.7 1.408.28.533.55 1.077.8 1.632.26.533.45.992.58 1.376.11.235.1.459-.03.672-.13.213-.31.373-.55.48Zm9.35 39.616c-1.62 0-2.9-.171-3.84-.512-.92-.341-1.57-.928-1.95-1.76-.39-.832-.58-1.973-.58-3.424 0-1.451.19-2.592.58-3.424.38-.832 1.03-1.419 1.95-1.76.94-.341 2.22-.512 3.84-.512h2.37c1.62 0 2.89.171 3.8.512.94.341 1.6.928 1.99 1.76.38.832.57 1.973.57 3.424 0 1.451-.19 2.592-.57 3.424-.39.832-1.05 1.419-1.99 1.76-.91.341-2.18.512-3.8.512h-2.37Zm8.64 15.2c-2.24 0-3.81-.384-4.71-1.152-.87-.768-1.31-2.069-1.31-3.904v-2.112c0-1.835.44-3.136 1.31-3.904.9-.768 2.47-1.152 4.71-1.152 2.22 0 3.77.384 4.67 1.152.9.768 1.34 2.069 1.34 3.904v2.112c0 1.835-.44 3.136-1.34 3.904-.9.768-2.45 1.152-4.67 1.152Zm-14.85 0c-2.22 0-3.77-.384-4.64-1.152-.88-.768-1.31-2.069-1.31-3.904v-2.112c0-1.835.43-3.136 1.31-3.904.87-.768 2.42-1.152 4.64-1.152 1.49 0 2.68.171 3.55.512.88.32 1.49.853 1.86 1.6.38.725.57 1.707.57 2.944v2.112c0 1.216-.19 2.197-.57 2.944-.37.747-.98 1.28-1.86 1.6-.87.341-2.06.512-3.55.512Zm6.21-17.216h2.37c1.13 0 1.99-.096 2.59-.288.59-.192 1-.555 1.21-1.088.24-.533.36-1.301.36-2.304s-.12-1.771-.36-2.304c-.21-.533-.62-.896-1.21-1.088-.6-.192-1.46-.288-2.59-.288h-2.37c-1.11 0-1.98.096-2.59.288-.6.192-1.02.555-1.25 1.088-.22.533-.32 1.301-.32 2.304s.1 1.771.32 2.304c.23.533.65.896 1.25 1.088.61.192 1.48.288 2.59.288Zm8.64 15.232c1.49 0 2.5-.224 3.04-.672.55-.448.83-1.259.83-2.432v-2.048c0-1.195-.28-2.005-.83-2.432-.54-.448-1.55-.672-3.04-.672-1.5 0-2.52.224-3.07.672-.54.427-.8 1.237-.8 2.432v2.048c0 1.173.26 1.984.8 2.432.55.448 1.57.672 3.07.672Zm-14.85 0c1.49 0 2.51-.224 3.04-.672.53-.448.8-1.259.8-2.432v-2.048c0-1.195-.27-2.005-.8-2.432-.53-.448-1.55-.672-3.04-.672s-2.51.224-3.04.672c-.51.427-.77 1.237-.77 2.432v2.048c0 1.173.26 1.984.77 2.432.53.448 1.55.672 3.04.672Z" class="ç²å"/>
        <path fill="#000" d="M1346.02 808.672a1.16 1.16 0 0 1-.74-.352.959.959 0 0 1-.28-.704c.02-.299.12-.544.32-.736.21-.192.45-.288.73-.288 2.35.085 4.16-.235 5.44-.96 1.28-.747 1.92-1.867 1.92-3.36 0-1.429-.6-2.517-1.79-3.264-1.2-.747-2.83-1.12-4.9-1.12-.98 0-1.93.053-2.84.16-.9.107-1.75.245-2.56.416v4.608c0 1.899-.39 3.296-1.16 4.192-.74.896-1.95 1.344-3.61 1.344-1.3 0-2.38-.352-3.23-1.056-.86-.725-1.28-1.76-1.28-3.104 0-1.664.66-3.125 1.98-4.384 1.34-1.28 3.1-2.272 5.28-2.976v-6.496c-1.09.085-2.16.16-3.2.224-1.02.043-1.97.075-2.85.096a.932.932 0 0 1-.73-.256c-.2-.213-.29-.459-.29-.736 0-.299.09-.544.29-.736.21-.192.45-.288.73-.288.88-.021 1.83-.053 2.85-.096 1.04-.064 2.11-.139 3.2-.224v-5.184c0-.299.1-.544.29-.736.21-.192.46-.288.73-.288.28 0 .52.096.71.288.19.192.29.437.29.736v5.024a217.17 217.17 0 0 0 4.12-.512c.3-.043.56.011.77.16.24.149.36.373.39.672a.925.925 0 0 1-.2.736c-.15.213-.37.341-.67.384l-2.08.288c-.75.085-1.52.171-2.33.256v6.144c.85-.171 1.72-.299 2.62-.384.92-.107 1.86-.16 2.82-.16 2.77 0 4.91.576 6.43 1.728 1.53 1.131 2.3 2.645 2.3 4.544 0 2.133-.83 3.765-2.49 4.896-1.67 1.109-3.99 1.611-6.98 1.504Zm-9.47-2.048c.94 0 1.63-.245 2.08-.736.45-.512.67-1.451.67-2.816v-4c-1.64.597-2.92 1.376-3.84 2.336-.92.939-1.38 1.941-1.38 3.008 0 .64.21 1.173.61 1.6.43.405 1.05.608 1.86.608Zm18.14-13.248c-.38-.299-.91-.651-1.57-1.056-.64-.405-1.3-.8-1.98-1.184a17.21 17.21 0 0 0-1.76-.96 1.065 1.065 0 0 1-.54-.544.933.933 0 0 1 .03-.8.982.982 0 0 1 .57-.512c.28-.085.55-.075.8.032.56.256 1.2.597 1.92 1.024.75.427 1.46.853 2.15 1.28a21.5 21.5 0 0 1 1.6 1.088.89.89 0 0 1 .38.672c.04.277-.02.533-.19.768a.913.913 0 0 1-.64.384c-.28.021-.53-.043-.77-.192Zm-9.95 51.168c-1.41 0-2.56-.331-3.46-.992-.89-.661-1.34-1.643-1.34-2.944 0-1.237.43-2.208 1.28-2.912.87-.704 2.06-1.056 3.55-1.056.94 0 1.87.096 2.79.288-.03-1.259-.06-2.699-.1-4.32-.04-1.621-.09-3.275-.13-4.96-1.3.085-2.56.149-3.77.192-1.22.043-2.28.053-3.17.032a.98.98 0 0 1-.71-.288 1.07 1.07 0 0 1-.28-.736c.02-.299.12-.544.32-.736a.932.932 0 0 1 .73-.256c.88.021 1.91.021 3.11 0 1.21-.021 2.46-.075 3.74-.16l-.06-2.816v-2.56c0-.277.09-.512.28-.704.22-.213.46-.32.74-.32.28 0 .51.107.7.32.2.192.29.427.29.704v2.56c.02.875.04 1.771.07 2.688 1.1-.085 2.15-.181 3.13-.288.98-.107 1.81-.224 2.5-.352.27-.043.52.021.73.192.24.149.38.363.42.64.04.277-.01.533-.16.768a.9.9 0 0 1-.67.416c-.71.085-1.58.181-2.63.288a411 411 0 0 0-3.29.288c.04 1.856.08 3.659.13 5.408.06 1.728.1 3.221.12 4.48 1.26.363 2.45.821 3.56 1.376 1.1.555 2.08 1.141 2.91 1.76.23.149.37.363.41.64.07.277.01.533-.16.768-.17.213-.39.352-.67.416-.28.043-.53-.021-.77-.192-.66-.491-1.45-.971-2.36-1.44-.92-.491-1.88-.907-2.88-1.248V840c.02 1.579-.39 2.731-1.22 3.456-.83.725-2.06 1.088-3.68 1.088Zm-11.01.096c-.28.043-.53-.021-.77-.192a.884.884 0 0 1-.41-.64c-.13-.725-.24-1.685-.32-2.88a93.88 93.88 0 0 1-.13-4.096c-.02-1.515-.01-3.083.03-4.704.04-1.621.11-3.2.19-4.736.09-1.536.2-2.944.32-4.224.15-1.28.32-2.315.52-3.104.06-.277.21-.48.44-.608a.978.978 0 0 1 .77-.128c.28.064.49.213.64.448.15.235.19.491.13.768-.19.811-.36 1.835-.51 3.072a61.597 61.597 0 0 0-.35 4.064c-.09 1.451-.15 2.944-.2 4.48-.02 1.536-.02 3.029 0 4.48.02 1.429.08 2.741.16 3.936a36 36 0 0 0 .32 2.88.884.884 0 0 1-.19.736.988.988 0 0 1-.64.448Zm11.01-2.016c1.04 0 1.78-.203 2.21-.608.45-.427.67-1.099.67-2.016v-1.12c-.49-.107-.98-.192-1.47-.256-.47-.064-.94-.096-1.41-.096-1.9 0-2.85.693-2.85 2.08 0 .661.25 1.163.74 1.504.51.341 1.21.512 2.11.512Zm11.46-19.168a.847.847 0 0 1-.64.192.793.793 0 0 1-.58-.32c-.28-.363-.66-.8-1.15-1.312-.49-.512-.92-.917-1.28-1.216a.81.81 0 0 1-.29-.544.78.78 0 0 1 .19-.608.791.791 0 0 1 .58-.256c.23-.021.45.043.64.192.23.192.51.448.83.768.32.32.64.651.96.992.34.341.62.629.83.864.17.192.24.405.19.64a.947.947 0 0 1-.28.608Zm2.56-2.592a.925.925 0 0 1-.61.224.947.947 0 0 1-.61-.288c-.3-.363-.72-.779-1.25-1.248-.51-.491-.95-.875-1.31-1.152a.946.946 0 0 1-.32-.544.732.732 0 0 1 .16-.608.922.922 0 0 1 .58-.288.9.9 0 0 1 .64.192c.23.171.52.405.86.704.36.299.71.608 1.06.928.34.32.61.597.83.832.17.171.24.384.22.64 0 .235-.08.437-.25.608Zm-11.3 60.352c-2.26.043-4.25-.192-5.95-.704-1.71-.491-3.03-1.269-3.97-2.336-.94-1.067-1.41-2.421-1.41-4.064 0-1.344.32-2.453.96-3.328.64-.875 1.51-1.525 2.59-1.952 1.11-.448 2.38-.683 3.81-.704 1.45-.043 2.98.128 4.58.512-.94-.832-1.87-1.845-2.79-3.04a30.311 30.311 0 0 1-2.46-3.84c-1.37.213-2.74.395-4.13.544-1.39.149-2.73.256-4.03.32a.966.966 0 0 1-.74-.256c-.19-.192-.3-.427-.32-.704 0-.299.1-.544.29-.736.19-.192.43-.299.71-.32a74.03 74.03 0 0 0 3.55-.224c1.26-.128 2.5-.288 3.74-.48-.28-.661-.53-1.312-.77-1.952a18.83 18.83 0 0 1-.51-1.952.985.985 0 0 1 .13-.768.881.881 0 0 1 .64-.416c.3-.064.55-.021.77.128.23.149.38.363.45.64.25 1.28.69 2.613 1.31 4 1.23-.235 2.42-.48 3.55-.736 1.13-.277 2.16-.576 3.1-.896a.96.96 0 0 1 .77.064c.26.128.43.331.51.608.09.256.07.512-.06.768a.992.992 0 0 1-.61.48c-.94.277-1.95.544-3.04.8-1.07.256-2.16.501-3.29.736.87 1.557 1.9 3.04 3.1 4.448 1.22 1.408 2.5 2.581 3.84 3.52.21.149.35.341.42.576.06.235.04.469-.07.704-.11.213-.28.373-.51.48-.24.107-.47.128-.7.064-2.56-.853-4.8-1.28-6.72-1.28-1.9-.021-3.39.331-4.45 1.056-1.05.725-1.57 1.781-1.57 3.168 0 1.216.38 2.208 1.15 2.976.77.747 1.85 1.291 3.23 1.632 1.39.32 3.01.469 4.87.448.27 0 .51.096.7.288.21.192.32.427.32.704a.93.93 0 0 1-.29.704.898.898 0 0 1-.7.32Zm-14.98 34.656a.997.997 0 0 1-.54-.544c-.09-.277-.08-.544.03-.8l1.38-2.944c.55-1.195 1.17-2.517 1.85-3.968.71-1.451 1.42-2.933 2.15-4.448.74-1.515 1.46-2.976 2.14-4.384.71-1.429 1.35-2.709 1.92-3.84.58-1.152 1.05-2.069 1.41-2.752a.87.87 0 0 1 .61-.48.895.895 0 0 1 .77.096c.23.149.38.363.44.64.09.256.07.501-.06.736-.36.64-.85 1.568-1.47 2.784-.62 1.195-1.3 2.539-2.05 4.032-.75 1.493-1.5 3.029-2.27 4.608a8.214 8.214 0 0 1 2.05-1.184c.7-.299 1.38-.448 2.04-.448 1.8 0 3.01.544 3.65 1.632.64 1.067.68 2.592.13 4.576-.43 1.536-.44 2.635-.03 3.296.4.64 1.16.96 2.27.96 1.07 0 2.02-.384 2.85-1.152.83-.789 1.62-2.187 2.37-4.192.1-.256.28-.437.54-.544a.887.887 0 0 1 .77-.032c.25.085.43.256.54.512.13.256.14.523.03.8-.85 2.261-1.84 3.936-2.97 5.024-1.13 1.067-2.51 1.6-4.13 1.6-1.17 0-2.16-.245-2.94-.736-.77-.512-1.28-1.269-1.54-2.272-.24-1.003-.14-2.272.29-3.808.36-1.28.4-2.229.13-2.848-.28-.619-.95-.928-2.02-.928-1.22 0-2.41.416-3.58 1.248-1.18.832-2.2 2.165-3.08 4-.44.981-.88 1.941-1.31 2.88-.4.939-.75 1.728-1.02 2.368a.979.979 0 0 1-.58.544 1.07 1.07 0 0 1-.77-.032Zm7.43 37.856c-.26.107-.53.107-.8 0a.983.983 0 0 1-.55-.544c-.1-.277-.1-.544 0-.8.11-.256.3-.437.58-.544 2.07-.875 3.62-1.984 4.64-3.328 1.02-1.344 1.63-2.827 1.82-4.448-.81.939-1.86 1.408-3.16 1.408-1.43 0-2.56-.363-3.4-1.088-.81-.747-1.21-1.792-1.21-3.136 0-1.323.42-2.389 1.28-3.2.85-.832 1.98-1.248 3.39-1.248.79 0 1.49.139 2.11.416a60.859 60.859 0 0 1-.29-3.648c-2.36.085-4.72.213-7.07.384-2.32.149-4.48.331-6.46.544-.28.021-.53-.053-.74-.224a1.03 1.03 0 0 1-.38-.672c-.02-.299.05-.555.22-.768.17-.213.4-.331.67-.352a270.4 270.4 0 0 1 6.53-.48c2.39-.149 4.8-.267 7.23-.352V927.2c0-.277.1-.512.29-.704.19-.213.43-.32.71-.32.29 0 .54.107.73.32.19.192.29.427.29.704v4.384c1.96-.064 3.84-.107 5.63-.128 1.81-.043 3.45-.053 4.9-.032.27 0 .51.107.7.32.19.192.28.427.26.704 0 .277-.11.523-.32.736a.866.866 0 0 1-.71.256c-1.47-.043-3.1-.053-4.89-.032-1.79 0-3.65.032-5.57.096.02.917.05 1.835.1 2.752.06.917.1 1.781.12 2.592.34.469.6 1.035.77 1.696.19.661.29 1.397.29 2.208 0 2.389-.66 4.565-1.98 6.528-1.31 1.963-3.22 3.445-5.73 4.448Zm2.53-10.08c.74-.021 1.34-.245 1.79-.672.47-.448.7-1.067.7-1.856 0-.235-.01-.459-.03-.672 0-.235-.01-.469-.03-.704-.54-.704-1.33-1.056-2.37-1.056-.79 0-1.45.224-1.98.672-.52.427-.77 1.035-.77 1.824.02.789.26 1.408.73 1.856.47.427 1.12.629 1.96.608Zm13.05-13.024a.814.814 0 0 1-.67.032.918.918 0 0 1-.48-.448c-.19-.427-.48-.939-.86-1.536-.37-.597-.69-1.088-.96-1.472a.663.663 0 0 1-.13-.576.69.69 0 0 1 .35-.512c.45-.277.83-.192 1.15.256.19.235.42.544.67.928.26.384.5.779.74 1.184.26.384.46.715.61.992.1.213.11.437.03.672a.932.932 0 0 1-.45.48Zm3.11-1.856a.851.851 0 0 1-.68.096.918.918 0 0 1-.48-.448c-.21-.427-.52-.928-.92-1.504-.41-.576-.76-1.035-1.06-1.376a.735.735 0 0 1-.19-.576.792.792 0 0 1 .35-.544.643.643 0 0 1 .61-.128.96.96 0 0 1 .54.32c.19.213.43.512.71.896.27.363.55.736.83 1.12.27.384.49.715.64.992.13.213.15.437.06.672a.76.76 0 0 1-.41.48Z" class="ãã°ããã"/>
        <path fill="#000" d="M1227.25 810.096a1.002 1.002 0 0 1-.39-.672c-.02-.299.05-.555.23-.768.96-1.216 1.84-2.56 2.65-4.032a42.929 42.929 0 0 0 2.24-4.672 53.596 53.596 0 0 0 1.7-4.864c-.88.085-1.78.181-2.72.288-.94.085-1.9.181-2.88.288-.28.021-.53-.053-.74-.224a1.03 1.03 0 0 1-.38-.672 1.02 1.02 0 0 1 .22-.736c.17-.235.4-.363.67-.384 1.11-.107 2.2-.203 3.27-.288 1.06-.107 2.1-.192 3.1-.256.58-2.325.92-4.448 1.03-6.368.02-.299.13-.533.35-.704a.944.944 0 0 1 .73-.256c.28.021.52.139.71.352.19.192.27.427.25.704-.06.896-.18 1.867-.35 2.912a33.89 33.89 0 0 1-.64 3.232c2.99-.128 5.04.469 6.15 1.792 1.13 1.323 1.48 3.499 1.05 6.528-.34 2.432-.85 4.32-1.53 5.664-.69 1.344-1.58 2.251-2.69 2.72-1.09.448-2.45.565-4.07.352-.27-.043-.5-.171-.67-.384a.92.92 0 0 1-.19-.736c.04-.299.17-.533.38-.704a.918.918 0 0 1 .74-.192c.77.107 1.47.117 2.11.032a3.073 3.073 0 0 0 1.7-.8c.51-.469.95-1.195 1.31-2.176.36-1.003.66-2.357.9-4.064.21-1.536.2-2.763-.04-3.68-.21-.939-.74-1.6-1.6-1.984-.83-.384-2.08-.523-3.74-.416h-.32a59.23 59.23 0 0 1-1.79 5.344 47.667 47.667 0 0 1-2.4 5.152 31.343 31.343 0 0 1-2.95 4.48.913.913 0 0 1-.64.384.983.983 0 0 1-.76-.192Zm25.34-9.536a.963.963 0 0 1-.77.064.992.992 0 0 1-.61-.48c-.4-.747-.88-1.515-1.44-2.304a22.937 22.937 0 0 0-1.79-2.304 24.488 24.488 0 0 0-1.82-1.92.802.802 0 0 1-.32-.672c0-.299.09-.544.29-.736.19-.213.42-.32.7-.32.28-.021.52.064.74.256.64.597 1.29 1.301 1.95 2.112a31.77 31.77 0 0 1 1.92 2.464c.62.853 1.14 1.675 1.57 2.464.12.235.14.491.06.768-.09.256-.25.459-.48.608Zm-16.58 46.56c-1.45 0-2.63-.341-3.55-1.024-.92-.661-1.37-1.632-1.37-2.912 0-1.237.43-2.219 1.31-2.944.89-.725 2.12-1.088 3.68-1.088.49 0 .98.032 1.47.096.51.043 1.02.117 1.54.224-.03-.811-.05-1.675-.07-2.592 0-.939-.02-1.909-.06-2.912-2.48.064-4.75.064-6.82 0a.898.898 0 0 1-.7-.32.967.967 0 0 1-.26-.736c.02-.277.13-.512.32-.704a.954.954 0 0 1 .74-.256c1 .043 2.07.075 3.2.096 1.13 0 2.28-.011 3.45-.032l-.06-2.4c0-.811-.01-1.611-.03-2.4-2.39.064-4.61.064-6.66 0a.898.898 0 0 1-.7-.32.967.967 0 0 1-.26-.736c.02-.277.13-.512.32-.704a.954.954 0 0 1 .74-.256c.98.043 2.02.075 3.13.096 1.11 0 2.24-.011 3.4-.032-.03-.725-.04-1.419-.04-2.08v-1.92c0-.277.1-.512.29-.704a.964.964 0 0 1 .71-.288c.29 0 .54.096.73.288.19.192.29.427.29.704v1.888c.02.64.03 1.312.03 2.016 1.07-.043 2.09-.107 3.07-.192 1.01-.107 1.91-.213 2.72-.32.28-.043.53.021.74.192.23.171.37.395.42.672.04.277-.03.533-.2.768-.17.213-.39.341-.67.384-.87.085-1.82.171-2.85.256a72.38 72.38 0 0 1-3.2.192c.02.789.05 1.589.07 2.4l.06 2.4c1.03-.043 2.02-.107 2.98-.192.98-.107 1.86-.213 2.65-.32.28-.043.53.021.74.192.23.171.37.395.42.672.04.277-.03.533-.2.768-.17.213-.39.341-.67.384-.85.085-1.78.171-2.78.256a70.94 70.94 0 0 1-3.11.192c.05 1.109.08 2.187.1 3.232.02 1.024.04 1.973.06 2.848 1.33.384 2.6.853 3.81 1.408 1.22.555 2.25 1.131 3.11 1.728.23.149.38.363.44.64.07.277.01.533-.16.768a.9.9 0 0 1-.67.416c-.28.043-.53-.011-.77-.16-.72-.491-1.58-.981-2.56-1.472-.98-.512-2.03-.949-3.16-1.312v.64c0 3.008-1.72 4.512-5.16 4.512Zm0-1.888c1.18 0 1.99-.224 2.44-.672.44-.448.67-1.099.67-1.952v-1.184c-.54-.107-1.06-.192-1.57-.256s-1.02-.096-1.54-.096c-.94 0-1.65.192-2.14.576-.49.363-.74.875-.74 1.536 0 .683.26 1.195.77 1.536.51.341 1.22.512 2.11.512Zm4.23 37.088c-1.35 0-2.49-.32-3.43-.96-.91-.661-1.37-1.653-1.37-2.976 0-1.259.42-2.24 1.28-2.944.87-.704 2.06-1.056 3.55-1.056.94 0 1.87.096 2.78.288-.02-.917-.05-1.92-.09-3.008-.02-1.109-.06-2.24-.1-3.392-1.13.085-2.22.149-3.26.192-1.05.021-1.93.021-2.66 0a.898.898 0 0 1-.7-.32.967.967 0 0 1-.26-.736c.02-.277.13-.512.32-.704a.954.954 0 0 1 .74-.256 59.654 59.654 0 0 0 5.79-.16c-.02-.853-.04-1.664-.06-2.432-.03-.789-.04-1.504-.04-2.144-.94.064-1.86.117-2.78.16-.92.021-1.78.032-2.59.032-.28 0-.53-.096-.74-.288a.968.968 0 0 1-.29-.704c0-.299.1-.544.29-.736.21-.192.46-.288.74-.288 1.11 0 2.3-.032 3.58-.096 1.3-.064 2.57-.16 3.81-.288 1.24-.128 2.3-.267 3.2-.416.28-.043.53.021.77.192.23.149.36.363.38.64.04.277-.01.533-.16.768a.9.9 0 0 1-.67.416c-.49.085-1.04.16-1.63.224-.6.064-1.23.128-1.89.192.02.704.03 1.451.03 2.24 0 .768.01 1.557.03 2.368.84-.064 1.62-.139 2.37-.224.77-.107 1.43-.203 1.99-.288.29-.043.55.021.76.192.24.149.38.363.42.64.04.277-.02.533-.19.768a.934.934 0 0 1-.64.384c-.6.085-1.3.181-2.11.288-.82.085-1.66.171-2.53.256.04 1.301.07 2.56.09 3.776.05 1.216.08 2.293.1 3.232 1.26.363 2.44.821 3.55 1.376 1.13.555 2.11 1.141 2.95 1.76a.99.99 0 0 1 .41.672c.07.277.01.533-.16.768-.17.213-.39.341-.67.384-.28.043-.53-.011-.77-.16-.66-.491-1.45-.981-2.37-1.472-.91-.491-1.87-.917-2.88-1.28v.544c0 1.493-.39 2.635-1.18 3.424-.77.768-2.01 1.152-3.71 1.152Zm-10.75.288a.997.997 0 0 1-.77-.192c-.22-.149-.34-.363-.39-.64a33.85 33.85 0 0 1-.32-2.848c-.06-1.195-.1-2.528-.12-4-.03-1.472-.03-2.997 0-4.576.04-1.579.1-3.115.19-4.608.08-1.515.2-2.891.35-4.128.15-1.259.32-2.283.51-3.072a1 1 0 0 1 .45-.64.971.971 0 0 1 .77-.128c.27.085.48.245.61.48.14.235.19.491.12.768-.19.811-.36 1.824-.51 3.04a88.201 88.201 0 0 0-.32 3.936 149.14 149.14 0 0 0-.19 4.416c-.02 1.493-.02 2.944 0 4.352.02 1.408.06 2.688.13 3.84.08 1.152.19 2.091.32 2.816.04.277-.01.533-.16.768a.92.92 0 0 1-.67.416Zm10.75-2.176c1.04 0 1.78-.213 2.21-.64.44-.448.67-1.131.67-2.048v-1.12c-.49-.107-.98-.192-1.47-.256-.47-.064-.94-.096-1.41-.096-.98 0-1.7.203-2.15.608-.44.384-.67.885-.67 1.504 0 .661.25 1.173.74 1.536.49.341 1.18.512 2.08.512Zm12.57-14.624a.768.768 0 0 1-.6.192.894.894 0 0 1-.61-.32c-.28-.363-.66-.8-1.15-1.312-.47-.512-.89-.928-1.25-1.248a.81.81 0 0 1-.29-.544.735.735 0 0 1 .19-.576.791.791 0 0 1 .58-.256c.23-.021.45.043.64.192.23.192.51.448.83.768.32.32.64.651.96.992.34.341.62.629.83.864.17.192.24.405.19.64-.04.235-.15.437-.32.608Zm2.56-2.56a.882.882 0 0 1-.6.224.947.947 0 0 1-.61-.288c-.3-.363-.72-.789-1.25-1.28-.51-.491-.95-.875-1.31-1.152a.812.812 0 0 1-.32-.512.78.78 0 0 1 .19-.608c.15-.192.33-.288.54-.288.24-.021.45.043.64.192.24.171.53.405.87.704.36.299.71.608 1.05.928.37.32.65.597.87.832.17.171.24.384.22.64a.959.959 0 0 1-.29.608Zm-7.39 53.12c-3.05.704-5.8 1.024-8.25.96-2.44-.064-4.46-.491-6.08-1.28-1.63-.811-2.74-1.941-3.33-3.392a.935.935 0 0 1 0-.768c.1-.277.29-.459.54-.544.28-.107.55-.107.8 0 .26.107.44.288.55.544.49 1.152 1.46 2.027 2.91 2.624 1.47.576 3.27.853 5.41.832 2.15-.021 4.48-.341 6.97-.96a.978.978 0 0 1 .77.128c.23.149.38.363.45.64.06.277.02.533-.13.768a.885.885 0 0 1-.61.448Zm-2.56-17.792a28.388 28.388 0 0 0-3.93-.672 40.611 40.611 0 0 0-4.2-.288c-1.34-.021-2.52.021-3.55.128-.28.021-.53-.043-.77-.192a1.03 1.03 0 0 1-.38-.672c-.02-.299.05-.555.22-.768a.89.89 0 0 1 .68-.384c.81-.085 1.73-.128 2.78-.128 1.07 0 2.16.043 3.3.128 1.15.064 2.27.171 3.36.32 1.08.149 2.06.341 2.94.576.28.064.49.213.64.448.15.235.19.491.13.768-.07.277-.22.491-.45.64a.89.89 0 0 1-.77.096Z" class="ãã¾ã¼ã"/>
      </g>
    </g>
    <g class="valleyball-male">
      <g class="round_final">
        <mask id="b" fill="#fff" class="b">
          <path d="M332 340h251v95H332v-95Z"/>
        </mask>
        <path fill="#F6F1EE" d="M332 340h251v95H332v-95Z"/>
        <path fill="#6C5F5B" d="M577 340v95h12v-95h-12Z" mask="url(#b)"/>
      </g>
      <g class="step3">
        <g class="round5">
          <g class="round5B">
            <path fill="#F6F1EE" d="M583.059 435h150.059v318H583.059V435Z"/>
            <path fill="#6C5F5B" d="M733.118 435h3v-3h-3v3Zm-150.059 3h150.059v-6H583.059v6Zm147.059-3v318h6V435h-6Z"/>
          </g>
          <g class="round5A">
            <path fill="#F6F1EE" d="M433 435h150.059v318H433V435Z"/>
            <path fill="#6C5F5B" d="M433 435v-3h-3v3h3Zm0 3h150.059v-6H433v6Zm3 315V435h-6v318h6Z"/>
          </g>
        </g>
      </g>
      <g class="step2">
        <g class="round4">
          <g class="round4B">
            <path fill="#F6F1EE" d="M433 541h100v212H433V541Z"/>
            <path fill="#6C5F5B" d="M533 541h3v-3h-3v3Zm-100 3h100v-6H433v6Zm97-3v212h6V541h-6Z"/>
          </g>
          <g class="round4A">
            <path fill="#F6F1EE" d="M333 541h100v212H333V541Z"/>
            <path fill="#6C5F5B" d="M333 541v-3h-3v3h3Zm0 3h100v-6H333v6Zm3 209V541h-6v212h6Z"/>
          </g>
        </g>
      </g>
      <g class="step1">
        <g class="round3">
          <g class="round3B">
            <path fill="#F6F1EE" d="M733 647h50v106h-50V647Z"/>
            <path fill="#6C5F5B" d="M783 647h3v-3h-3v3Zm-50 3h50v-6h-50v6Zm47-3v106h6V647h-6Z"/>
          </g>
          <g class="round3A">
            <path fill="#F6F1EE" d="M683 647h50v106h-50V647Z"/>
            <path fill="#6C5F5B" d="M683 647v-3h-3v3h3Zm0 3h50v-6h-50v6Zm3 103V647h-6v106h6Z"/>
          </g>
        </g>
        <g class="round2">
          <g class="round2B">
            <path fill="#F6F1EE" d="M533 647h50v106h-50V647Z"/>
            <path fill="#6C5F5B" d="M583 647h3v-3h-3v3Zm-50 3h50v-6h-50v6Zm47-3v106h6V647h-6Z"/>
          </g>
          <g class="round2A">
            <path fill="#F6F1EE" d="M483 647h50v106h-50V647Z"/>
            <path fill="#6C5F5B" d="M483 647v-3h-3v3h3Zm0 3h50v-6h-50v6Zm3 103V647h-6v106h6Z"/>
          </g>
        </g>
        <g class="round1">
          <g class="round1B">
            <path fill="#F6F1EE" d="M333 647h50v106h-50V647Z"/>
            <path fill="#6C5F5B" d="M383 647h3v-3h-3v3Zm-50 3h50v-6h-50v6Zm47-3v106h6V647h-6Z"/>
          </g>
          <g class="round1A">
            <path fill="#F6F1EE" d="M283 647h50v106h-50V647Z"/>
            <path fill="#6C5F5B" d="M283 647v-3h-3v3h3Zm0 3h50v-6h-50v6Zm3 103V647h-6v106h6Z"/>
          </g>
        </g>
      </g>
      <g class="çå">
        <path fill="#ED7D31" d="M606.964 321.549c2.238 0 3.735-2.187 3.735-4.887v-39.007c0-1.977-.756-3.76-1.913-4.514-1.159-.759-2.49-.34-3.377 1.058l-5.963 9.408c-1.211 1.909-3.173 1.909-4.382 0l-11.524-18.176c-1.209-1.908-3.172-1.908-4.381 0l-11.524 18.176c-1.209 1.908-3.171 1.908-4.382 0l-5.963-9.408c-.887-1.398-2.22-1.818-3.377-1.058-1.157.754-1.913 2.537-1.913 4.514v39.007c0 2.7 1.503 4.887 3.74 4.887h51.224Z" class="Vector"/>
      </g>
      <path fill="#000" d="M249.6 194.4c-.5.133-.95.1-1.35-.1-.367-.167-.617-.483-.75-.95-.133-.467-.083-.867.15-1.2.233-.333.583-.55 1.05-.65 4.667-.967 8.417-2.483 11.25-4.55 2.833-2.067 4.933-4.583 6.3-7.55h-16.8c-.433 0-.783-.133-1.05-.4-.267-.3-.4-.65-.4-1.05s.133-.75.4-1.05c.267-.3.617-.45 1.05-.45h17.85c.267-.833.467-1.683.6-2.55.167-.867.283-1.767.35-2.7h-4.2c-2.3 0-4.183-.133-5.65-.4-1.467-.267-2.617-.75-3.45-1.45-.833-.733-1.417-1.75-1.75-3.05-.3-1.333-.45-3.033-.45-5.1 0-2.067.15-3.75.45-5.05.333-1.3.917-2.3 1.75-3 .833-.733 1.983-1.233 3.45-1.5 1.467-.267 3.35-.4 5.65-.4H276c2.3 0 4.183.133 5.65.4 1.467.267 2.6.767 3.4 1.5.833.7 1.4 1.7 1.7 3 .333 1.3.5 2.983.5 5.05 0 2.067-.167 3.767-.5 5.1-.3 1.3-.867 2.317-1.7 3.05-.8.7-1.933 1.183-3.4 1.45-1.467.267-3.35.4-5.65.4h-4.55c-.1.933-.233 1.833-.4 2.7a21.639 21.639 0 0 1-.55 2.55h10.35c3.367 0 5.633.683 6.8 2.05 1.2 1.333 1.467 3.717.8 7.15-.433 2.267-1.083 4.017-1.95 5.25-.867 1.233-2.117 2.083-3.75 2.55-1.6.5-3.733.75-6.4.75-.533 0-.967-.15-1.3-.45-.3-.3-.467-.667-.5-1.1a1.478 1.478 0 0 1 .45-1.2c.333-.333.767-.5 1.3-.5 2.133-.067 3.783-.25 4.95-.55 1.167-.3 2.033-.85 2.6-1.65.567-.833 1-2.033 1.3-3.6.5-2.333.4-3.867-.3-4.6-.667-.767-2.067-1.15-4.2-1.15h-11.1c-1.433 3.667-3.75 6.783-6.95 9.35-3.2 2.533-7.533 4.417-13 5.65Zm21.95-25.95H276c2.167 0 3.817-.133 4.95-.4 1.133-.3 1.917-.867 2.35-1.7.467-.867.733-2.15.8-3.85h-12.55v5.95Zm-7.5 0h4.4v-5.95h-12.5c.067 1.7.317 2.983.75 3.85.433.833 1.233 1.4 2.4 1.7 1.167.267 2.817.4 4.95.4Zm7.5-8.65h12.55c-.067-1.667-.333-2.917-.8-3.75-.433-.833-1.233-1.383-2.4-1.65-1.133-.267-2.767-.4-4.9-.4h-4.45v5.8Zm-15.6 0h12.5V154h-4.4c-2.133 0-3.783.133-4.95.4-1.133.267-1.933.817-2.4 1.65-.433.833-.683 2.083-.75 3.75Zm56.3 34.55a1.73 1.73 0 0 1-1.2-.45c-.333-.267-.5-.65-.5-1.15-.033-.467.117-.85.45-1.15.367-.3.767-.45 1.2-.45 2.367-.033 4.217-.417 5.55-1.15 1.367-.733 2.333-1.883 2.9-3.45.567-1.567.85-3.6.85-6.1 0-2.5-.35-4.867-1.05-7.1h-22c-.433 0-.8-.133-1.1-.4-.3-.3-.45-.667-.45-1.1 0-.433.15-.8.45-1.1.3-.3.667-.45 1.1-.45h20.8c-.6-1.2-1.3-2.333-2.1-3.4a16.426 16.426 0 0 0-2.8-2.9 1.816 1.816 0 0 1-.6-1.1c-.033-.433.1-.8.4-1.1.367-.367.75-.55 1.15-.55.433 0 .817.133 1.15.4.3.233.6.483.9.75.3.267.567.533.8.8.933-.5 2-1.083 3.2-1.75 1.233-.667 2.4-1.317 3.5-1.95 1.133-.667 2.017-1.2 2.65-1.6 1.067-.7 1.517-1.367 1.35-2-.133-.667-.833-1-2.1-1h-23.1c-.433 0-.8-.133-1.1-.4-.267-.3-.4-.667-.4-1.1 0-.433.133-.783.4-1.05.3-.3.667-.45 1.1-.45h24c1.467 0 2.633.3 3.5.9.867.567 1.4 1.3 1.6 2.2.233.867.133 1.767-.3 2.7-.433.933-1.233 1.733-2.4 2.4-1.333.767-2.933 1.65-4.8 2.65-1.833 1-3.55 1.917-5.15 2.75a23.7 23.7 0 0 1 2.65 4.8h18.8c.433 0 .8.15 1.1.45.3.3.45.667.45 1.1 0 .433-.15.8-.45 1.1-.3.267-.667.4-1.1.4h-17.8c.633 2.3.95 4.7.95 7.2 0 4.733-.95 8.217-2.85 10.45-1.9 2.233-5.1 3.35-9.6 3.35Zm38.5-12.55c-.333.233-.733.317-1.2.25a1.548 1.548 0 0 1-1.05-.65 1.688 1.688 0 0 1-.25-1.2c.067-.467.283-.817.65-1.05 1.933-1.367 3.8-2.983 5.6-4.85a53.16 53.16 0 0 0 4.8-5.7c1.433-1.967 2.533-3.75 3.3-5.35.2-.4.5-.667.9-.8.433-.133.85-.117 1.25.05.4.2.667.517.8.95.167.4.15.8-.05 1.2-.6 1.233-1.433 2.617-2.5 4.15a58.095 58.095 0 0 1-3.55 4.7 61.445 61.445 0 0 1-4.25 4.6c-1.5 1.433-2.983 2.667-4.45 3.7Zm39.2-.45c-.367.233-.767.3-1.2.2a1.753 1.753 0 0 1-1-.75c-.633-1.1-1.45-2.317-2.45-3.65a56.784 56.784 0 0 0-3.25-4.15 72.17 72.17 0 0 0-3.65-4.15 54.03 54.03 0 0 0-3.7-3.65c-.333-.3-.5-.667-.5-1.1 0-.467.15-.867.45-1.2.3-.333.667-.5 1.1-.5.467-.033.867.117 1.2.45a77.322 77.322 0 0 1 3.65 3.7 92.217 92.217 0 0 1 3.75 4.2 77.243 77.243 0 0 1 3.5 4.35c1.067 1.433 1.967 2.783 2.7 4.05.233.367.283.767.15 1.2-.1.433-.35.767-.75 1Zm2.2-22.45c-.233.233-.55.35-.95.35-.367 0-.683-.133-.95-.4-.5-.533-1.167-1.15-2-1.85-.833-.733-1.55-1.317-2.15-1.75a1.28 1.28 0 0 1-.5-.8 1.078 1.078 0 0 1 .25-.95c.233-.3.517-.467.85-.5.333-.033.667.05 1 .25.4.233.867.583 1.4 1.05.567.467 1.133.95 1.7 1.45.567.467 1.017.867 1.35 1.2.267.233.4.55.4.95 0 .4-.133.733-.4 1Zm-3.85 4.2c-.267.233-.6.333-1 .3a1.304 1.304 0 0 1-.9-.45c-.467-.567-1.1-1.233-1.9-2a37.773 37.773 0 0 0-2.05-1.85 1.28 1.28 0 0 1-.5-.8 1.219 1.219 0 0 1 .3-.95c.267-.3.567-.45.9-.45.367-.033.683.067.95.3.367.267.817.65 1.35 1.15a33.3 33.3 0 0 1 1.6 1.5c.567.5 1.017.933 1.35 1.3.267.267.383.6.35 1a1.496 1.496 0 0 1-.45.95Zm29.9 21.4c-4.233 1.467-7.533 1.633-9.9.5-2.367-1.167-3.55-3.767-3.55-7.8v-16.5c0-.433.15-.8.45-1.1.333-.333.717-.5 1.15-.5.467 0 .85.167 1.15.5.3.3.45.667.45 1.1v16.5c0 2.6.717 4.233 2.15 4.9 1.433.667 3.767.467 7-.6 3.267-1.1 6.517-2.517 9.75-4.25a78.374 78.374 0 0 0 9.1-5.8 1.563 1.563 0 0 1 1.2-.3c.433.033.783.233 1.05.6.267.333.367.733.3 1.2-.033.433-.233.783-.6 1.05-2.8 2.133-5.917 4.117-9.35 5.95a80.066 80.066 0 0 1-10.35 4.55Zm36-10.6c-.433 0-.817-.167-1.15-.5-.3-.333-.45-.717-.45-1.15 0-.433.15-.8.45-1.1.333-.333.717-.5 1.15-.5h31.65c.433 0 .8.167 1.1.5.333.3.5.667.5 1.1 0 .433-.167.817-.5 1.15-.3.333-.667.5-1.1.5H454.2Z" class="ç·å­ãã¬ã¼"/>
      <g class="class">
        <path fill="#000" d="M387.18 802.112c-.213.149-.469.203-.768.16a.992.992 0 0 1-.672-.416 1.08 1.08 0 0 1-.16-.768c.043-.299.181-.523.416-.672a25.227 25.227 0 0 0 3.584-3.104 34.045 34.045 0 0 0 3.072-3.648c.917-1.259 1.621-2.4 2.112-3.424a.97.97 0 0 1 .576-.512c.277-.085.544-.075.8.032a.971.971 0 0 1 .512.608.883.883 0 0 1-.032.768c-.384.789-.917 1.675-1.6 2.656a37.202 37.202 0 0 1-2.272 3.008 39.323 39.323 0 0 1-2.72 2.944 24.932 24.932 0 0 1-2.848 2.368Zm25.088-.288a.972.972 0 0 1-.768.128 1.12 1.12 0 0 1-.64-.48 23.454 23.454 0 0 0-1.568-2.336 36.35 36.35 0 0 0-2.08-2.656 46.188 46.188 0 0 0-2.336-2.656 34.606 34.606 0 0 0-2.368-2.336.913.913 0 0 1-.32-.704c0-.299.096-.555.288-.768a.913.913 0 0 1 .704-.32.946.946 0 0 1 .768.288 49.43 49.43 0 0 1 2.336 2.368 58.748 58.748 0 0 1 2.4 2.688 49.522 49.522 0 0 1 2.24 2.784 27.08 27.08 0 0 1 1.728 2.592.886.886 0 0 1 .096.768.969.969 0 0 1-.48.64Zm1.408-14.368c-.149.149-.352.224-.608.224a.83.83 0 0 1-.608-.256c-.32-.341-.747-.736-1.28-1.184a18.949 18.949 0 0 0-1.376-1.12.82.82 0 0 1-.32-.512.69.69 0 0 1 .16-.608.771.771 0 0 1 .544-.32 1.03 1.03 0 0 1 .64.16c.256.149.555.373.896.672.363.299.725.608 1.088.928.363.299.651.555.864.768.171.149.256.352.256.608a.868.868 0 0 1-.256.64Zm-2.464 2.688a.829.829 0 0 1-.64.192.833.833 0 0 1-.576-.288 15.53 15.53 0 0 0-1.216-1.28 24.13 24.13 0 0 0-1.312-1.184.82.82 0 0 1-.32-.512.781.781 0 0 1 .192-.608c.171-.192.363-.288.576-.288a.781.781 0 0 1 .608.192c.235.171.523.416.864.736.341.299.683.619 1.024.96.363.32.651.597.864.832a.771.771 0 0 1 .224.64.956.956 0 0 1-.288.608Zm-12.864 49.696c-2.709.939-4.821 1.045-6.336.32-1.515-.747-2.272-2.411-2.272-4.992v-10.56c0-.277.096-.512.288-.704.213-.213.459-.32.736-.32.299 0 .544.107.736.32a.958.958 0 0 1 .288.704v10.56c0 1.664.459 2.709 1.376 3.136.917.427 2.411.299 4.48-.384a40.701 40.701 0 0 0 6.24-2.72 50.175 50.175 0 0 0 5.824-3.712 1 1 0 0 1 .768-.192.882.882 0 0 1 .672.384c.171.213.235.469.192.768a.882.882 0 0 1-.384.672c-1.792 1.365-3.787 2.635-5.984 3.808a51.211 51.211 0 0 1-6.624 2.912Zm1.152 39.68c-.277 0-.523-.096-.736-.288a1.068 1.068 0 0 1-.288-.736V858.24c0-.299.096-.544.288-.736.213-.192.459-.288.736-.288.299 0 .544.096.736.288a.996.996 0 0 1 .288.736v20.256c0 .277-.096.523-.288.736a.996.996 0 0 1-.736.288Zm4.576 39.136a.958.958 0 0 1-.704-.288.958.958 0 0 1-.288-.704v-23.136c0-1.003.128-1.781.384-2.336.277-.576.779-.981 1.504-1.216.725-.256 1.771-.384 3.136-.384 2.176 0 3.595.395 4.256 1.184.661.768.629 1.877-.096 3.328-.192.363-.416.789-.672 1.28-.235.491-.469.96-.704 1.408-.235.448-.416.8-.544 1.056-.277.555-.459 1.003-.544 1.344-.064.32-.021.629.128.928.149.277.416.64.8 1.088.939 1.045 1.664 2.091 2.176 3.136.533 1.024.8 2.165.8 3.424 0 1.813-.491 3.136-1.472 3.968-.96.832-2.453 1.248-4.48 1.248-.277 0-.523-.085-.736-.256a1.052 1.052 0 0 1-.352-.736c0-.299.085-.544.256-.736.192-.213.459-.32.8-.32 1.493-.043 2.528-.288 3.104-.736.576-.469.864-1.312.864-2.528 0-.981-.224-1.92-.672-2.816-.448-.896-1.056-1.824-1.824-2.784-.555-.704-.939-1.28-1.152-1.728a2.18 2.18 0 0 1-.128-1.376c.107-.491.331-1.12.672-1.888.213-.448.469-.981.768-1.6.32-.64.619-1.259.896-1.856.363-.768.395-1.323.096-1.664-.299-.341-1.099-.512-2.4-.512-.811 0-1.429.064-1.856.192-.405.128-.672.352-.8.672-.128.299-.192.747-.192 1.344v23.008a.958.958 0 0 1-.288.704.996.996 0 0 1-.736.288Zm-10.592-1.28c-1.493 0-2.656-.16-3.488-.48-.832-.299-1.419-.832-1.76-1.6-.32-.768-.48-1.835-.48-3.2 0-1.365.16-2.421.48-3.168.341-.768.928-1.301 1.76-1.6.832-.32 1.995-.48 3.488-.48 1.493 0 2.656.16 3.488.48.832.299 1.408.832 1.728 1.6.341.747.512 1.803.512 3.168 0 1.365-.171 2.432-.512 3.2-.32.768-.896 1.301-1.728 1.6-.832.32-1.995.48-3.488.48Zm0-1.856c1.003 0 1.771-.085 2.304-.256.533-.171.896-.501 1.088-.992.213-.491.32-1.216.32-2.176 0-.96-.107-1.675-.32-2.144-.192-.491-.555-.821-1.088-.992-.533-.171-1.301-.256-2.304-.256s-1.781.085-2.336.256c-.533.171-.896.501-1.088.992-.192.469-.288 1.184-.288 2.144 0 .96.096 1.685.288 2.176.192.491.555.821 1.088.992.555.171 1.333.256 2.336.256Zm-7.872-11.136a.978.978 0 0 1-.672-.256.868.868 0 0 1-.256-.64c0-.256.085-.469.256-.64a.978.978 0 0 1 .672-.256h8.896c.235-.533.512-1.173.832-1.92a73.913 73.913 0 0 0 1.664-3.968.976.976 0 0 1 .544-.544.883.883 0 0 1 .768-.032.863.863 0 0 1 .544.512.75.75 0 0 1 .032.704 46.028 46.028 0 0 1-1.12 2.56 91.01 91.01 0 0 1-1.248 2.688h4.64c.256 0 .469.085.64.256a.821.821 0 0 1 .288.64.821.821 0 0 1-.288.64.868.868 0 0 1-.64.256h-15.552Zm.768-8.768a.939.939 0 0 1-.64-.256.939.939 0 0 1-.256-.64c0-.256.085-.469.256-.64a.939.939 0 0 1 .64-.256h6.048v-3.328c0-.299.107-.544.32-.736.213-.213.459-.32.736-.32.299 0 .544.107.736.32a.996.996 0 0 1 .288.736v3.328h6.016a.83.83 0 0 1 .608.256.821.821 0 0 1 .288.64c0 .235-.096.448-.288.64a.83.83 0 0 1-.608.256H386.38Zm4.896 6.656a1.154 1.154 0 0 1-.8.032.863.863 0 0 1-.544-.512 19.595 19.595 0 0 0-.544-1.344 49.494 49.494 0 0 0-.672-1.6 13.741 13.741 0 0 0-.64-1.344.975.975 0 0 1-.032-.736.767.767 0 0 1 .48-.512 1.11 1.11 0 0 1 .736-.064.871.871 0 0 1 .576.448c.192.341.405.8.64 1.376.256.555.501 1.109.736 1.664.235.555.405 1.003.512 1.344.213.576.064.992-.448 1.248Zm16.704 50.016c-2.325-.341-4.267-1.013-5.824-2.016-1.557-1.024-2.72-2.261-3.488-3.712a9.898 9.898 0 0 1-1.152-4.64c0-2.133.544-4.064 1.632-5.792a13.721 13.721 0 0 1 4.256-4.32c-1.024.149-2.187.341-3.488.576a736.29 736.29 0 0 0-4.032.672 519.03 519.03 0 0 0-4.064.704c-1.301.235-2.464.448-3.488.64a1 1 0 0 1-.768-.192 1.035 1.035 0 0 1-.384-.672.992.992 0 0 1 .832-1.152c.512-.085 1.269-.213 2.272-.384 1.024-.171 2.197-.363 3.52-.576 1.344-.213 2.741-.437 4.192-.672 1.451-.256 2.88-.501 4.288-.736 1.408-.235 2.699-.448 3.872-.64 1.195-.192 2.165-.352 2.912-.48a.977.977 0 0 1 .736.16.983.983 0 0 1 .448.608c.043.277-.011.544-.16.8a.791.791 0 0 1-.608.416 12.215 12.215 0 0 0-4.032 1.504 13.065 13.065 0 0 0-3.168 2.624 11.82 11.82 0 0 0-2.048 3.296 9.498 9.498 0 0 0-.704 3.552c0 1.621.373 3.019 1.12 4.192.747 1.152 1.771 2.091 3.072 2.816 1.323.704 2.837 1.184 4.544 1.44.299.021.523.149.672.384.171.213.235.469.192.768a.791.791 0 0 1-.384.64c-.213.171-.469.235-.768.192Zm4.032-12.928a.829.829 0 0 1-.64.192.793.793 0 0 1-.576-.32 26.081 26.081 0 0 0-1.12-1.344c-.448-.533-.853-.96-1.216-1.28a.869.869 0 0 1-.256-.544.781.781 0 0 1 .192-.608.83.83 0 0 1 .608-.256.83.83 0 0 1 .608.256c.235.171.501.427.8.768l.96 1.024c.32.341.576.64.768.896a.725.725 0 0 1 .192.64.97.97 0 0 1-.32.576Zm2.656-2.496a.829.829 0 0 1-.64.192.833.833 0 0 1-.576-.288 15.53 15.53 0 0 0-1.216-1.28 15.53 15.53 0 0 0-1.28-1.216.7.7 0 0 1-.288-.512.781.781 0 0 1 .192-.608c.149-.192.331-.288.544-.288a.882.882 0 0 1 .64.192c.235.171.523.416.864.736.341.32.672.651.992.992.341.32.619.597.832.832a.771.771 0 0 1 .224.64.956.956 0 0 1-.288.608Z" class="ãã¬ã¼é¨ã§"/>
        <path fill="#000" d="M578.988 805.552c-.277 0-.523-.096-.736-.288a1.068 1.068 0 0 1-.288-.736c0-.299.096-.544.288-.736.213-.192.459-.288.736-.288.896 0 1.589-.085 2.08-.256a1.732 1.732 0 0 0 1.024-1.024c.192-.491.288-1.195.288-2.112v-9.792h-9.504c-.277 0-.523-.096-.736-.288a1.068 1.068 0 0 1-.288-.736c0-.277.096-.512.288-.704.213-.213.459-.32.736-.32h9.504v-4.416c0-.299.096-.544.288-.736.213-.192.459-.288.736-.288.299 0 .544.096.736.288a.996.996 0 0 1 .288.736v4.416h8.928c.299 0 .544.107.736.32a.958.958 0 0 1 .288.704c0 .277-.096.523-.288.736a.996.996 0 0 1-.736.288h-8.928v9.792c0 1.387-.192 2.485-.576 3.296a3.137 3.137 0 0 1-1.76 1.664c-.789.32-1.824.48-3.104.48Zm-7.168-3.904a.972.972 0 0 1-.768.128 1.089 1.089 0 0 1-.64-.512.886.886 0 0 1-.096-.768 1.12 1.12 0 0 1 .48-.64 19.457 19.457 0 0 0 3.232-2.304 18.457 18.457 0 0 0 2.688-2.816.992.992 0 0 1 .672-.416 1 1 0 0 1 .768.192c.235.149.373.373.416.672a1 1 0 0 1-.192.768c-.789 1.045-1.781 2.091-2.976 3.136-1.195 1.024-2.389 1.877-3.584 2.56Zm24.128-.608a.996.996 0 0 1-.768.256 1.024 1.024 0 0 1-.704-.352 33.924 33.924 0 0 0-1.728-1.664 42.66 42.66 0 0 0-2.112-1.792 17.64 17.64 0 0 0-2.016-1.408 1.119 1.119 0 0 1-.448-.672 1.08 1.08 0 0 1 .16-.768c.171-.235.395-.384.672-.448a.904.904 0 0 1 .768.16c.64.427 1.355.949 2.144 1.568a38.892 38.892 0 0 1 2.272 1.856c.747.64 1.365 1.227 1.856 1.76a.996.996 0 0 1 .256.768.908.908 0 0 1-.352.736ZM583.5 832.56a2.619 2.619 0 0 1-1.92-.8 2.619 2.619 0 0 1-.8-1.92c0-.747.267-1.387.8-1.92a2.619 2.619 0 0 1 1.92-.8c.747 0 1.387.267 1.92.8.533.533.8 1.173.8 1.92 0 .747-.267 1.387-.8 1.92-.533.533-1.173.8-1.92.8Zm-3.488 46.528a1.037 1.037 0 0 1-.8 0 .976.976 0 0 1-.544-.544 1.037 1.037 0 0 1 0-.8.972.972 0 0 1 .544-.576c2.517-1.045 4.555-2.208 6.112-3.488 1.579-1.301 2.795-2.645 3.648-4.032.853-1.387 1.451-2.731 1.792-4.032.277-1.003.427-1.803.448-2.4.021-.619-.096-1.109-.352-1.472-.384-.512-1.173-.875-2.368-1.088-1.173-.213-2.837-.32-4.992-.32-1.536 0-2.784.043-3.744.128-.96.064-1.717.192-2.272.384-.533.171-.939.416-1.216.736-.299.363-.448.949-.448 1.76 0 .789.107 1.909.32 3.36a1 1 0 0 1-.192.768.885.885 0 0 1-.64.416 1 1 0 0 1-.768-.192.992.992 0 0 1-.416-.672c-.277-1.749-.405-3.147-.384-4.192.021-1.067.341-1.941.96-2.624.64-.747 1.579-1.237 2.816-1.472 1.237-.256 2.944-.395 5.12-.416v-4.64c0-.299.107-.544.32-.736.213-.192.459-.288.736-.288.277 0 .512.096.704.288.213.192.32.437.32.736v4.64c2.24.043 3.968.224 5.184.544 1.216.299 2.112.832 2.688 1.6.533.661.779 1.451.736 2.368-.021.896-.213 2.005-.576 3.328-.384 1.408-1.056 2.901-2.016 4.48-.939 1.557-2.272 3.072-4 4.544-1.728 1.451-3.968 2.752-6.72 3.904Zm-4.48 32.928a1.145 1.145 0 0 1-.8-.032 1.122 1.122 0 0 1-.512-.608 1.063 1.063 0 0 1 .032-.768.864.864 0 0 1 .576-.544 45.119 45.119 0 0 0 5.376-2.336 55.502 55.502 0 0 0 5.184-2.976 46.658 46.658 0 0 0 4.512-3.328c1.365-1.131 2.485-2.24 3.36-3.328a.882.882 0 0 1 .672-.384c.299-.021.555.053.768.224a.98.98 0 0 1 .384.704c.021.277-.053.533-.224.768-.896 1.088-2.069 2.229-3.52 3.424a49.843 49.843 0 0 1-4.8 3.52 63.722 63.722 0 0 1-5.504 3.2 47.121 47.121 0 0 1-5.504 2.464Zm3.776-12.288a28.405 28.405 0 0 0-1.76-1.408 31.552 31.552 0 0 0-2.016-1.44 27.082 27.082 0 0 0-1.856-1.216 1.12 1.12 0 0 1-.48-.64.972.972 0 0 1 .128-.768 1.12 1.12 0 0 1 .64-.48c.299-.085.565-.043.8.128.597.384 1.259.832 1.984 1.344a92.02 92.02 0 0 1 2.112 1.536c.683.512 1.248.949 1.696 1.312a.882.882 0 0 1 .384.672 1 1 0 0 1-.192.768 1.188 1.188 0 0 1-.704.416.856.856 0 0 1-.736-.224Zm-1.184 50.176c-.213.171-.469.235-.768.192a1.035 1.035 0 0 1-.672-.384 1 1 0 0 1-.192-.768c.043-.299.171-.523.384-.672 1.643-1.216 2.997-2.741 4.064-4.576a19.03 19.03 0 0 0 2.208-6.016h-12.192a.958.958 0 0 1-.704-.288.958.958 0 0 1-.288-.704c0-.277.096-.512.288-.704a.913.913 0 0 1 .704-.32h12.48c.085-.832.107-1.675.064-2.528a20.67 20.67 0 0 0-.224-2.56 69.311 69.311 0 0 1-4.288.64 83.58 83.58 0 0 1-4.032.384.908.908 0 0 1-.736-.288 1.013 1.013 0 0 1-.32-.736.859.859 0 0 1 .256-.704c.213-.213.459-.331.736-.352a59.21 59.21 0 0 0 3.584-.256 87.16 87.16 0 0 0 3.936-.544 52.885 52.885 0 0 0 3.744-.736 29.37 29.37 0 0 0 3.104-.896.95.95 0 0 1 .8.032.867.867 0 0 1 .512.576.883.883 0 0 1-.032.768.972.972 0 0 1-.576.544c-.619.213-1.333.427-2.144.64-.811.213-1.685.405-2.624.576.299 1.835.363 3.648.192 5.44h10.432c.277 0 .512.107.704.32a.958.958 0 0 1 .288.704.958.958 0 0 1-.288.704.958.958 0 0 1-.704.288h-10.688a20.876 20.876 0 0 1-2.432 6.944c-1.195 2.133-2.72 3.893-4.576 5.28Zm.32 29.408a.868.868 0 0 1-.64-.256.939.939 0 0 1-.256-.64c0-.256.085-.469.256-.64a.821.821 0 0 1 .64-.288h8.16v-6.656h-5.28a.978.978 0 0 1-.672-.256.978.978 0 0 1-.256-.672.83.83 0 0 1 .256-.608.921.921 0 0 1 .672-.288h12.352c.256 0 .469.096.64.288a.788.788 0 0 1 .288.608c0 .256-.096.48-.288.672a.868.868 0 0 1-.64.256h-5.216v6.656h8.224c.256 0 .469.096.64.288a.821.821 0 0 1 .288.64c0 .235-.096.448-.288.64a.868.868 0 0 1-.64.256h-18.24Z" class="ãã»ã¦ã³ãã§"/>
        <path fill="#000" d="M485.068 809.824c-1.749 0-3.104-.149-4.064-.448-.939-.299-1.589-.8-1.952-1.504-.363-.725-.544-1.728-.544-3.008v-5.024a63.514 63.514 0 0 1-3.936 2.272 71.602 71.602 0 0 1-4.256 2.08c-.277.128-.555.16-.832.096-.277-.064-.501-.235-.672-.512a.957.957 0 0 1-.064-.832c.128-.277.331-.469.608-.576a53.179 53.179 0 0 0 7.392-3.712 48.766 48.766 0 0 0 6.464-4.608H469.58a.978.978 0 0 1-.672-.256.978.978 0 0 1-.256-.672c0-.256.085-.469.256-.64a.921.921 0 0 1 .672-.288h11.328v-4.256h-7.552a.978.978 0 0 1-.672-.256.978.978 0 0 1-.256-.672c0-.256.085-.469.256-.64a.921.921 0 0 1 .672-.288h7.552v-3.744c0-.299.096-.544.288-.736a.958.958 0 0 1 .704-.288c.299 0 .544.096.736.288a.996.996 0 0 1 .288.736v3.744h4.928c.256 0 .469.096.64.288a.821.821 0 0 1 .288.64c0 .256-.096.48-.288.672a.868.868 0 0 1-.64.256h-4.928v4.256h2.368a38.202 38.202 0 0 0 3.968-4.416 32.793 32.793 0 0 0 3.072-4.704.971.971 0 0 1 .608-.512.983.983 0 0 1 1.248.704c.064.235.021.469-.128.704a43.159 43.159 0 0 1-2.848 4.32 44.337 44.337 0 0 1-3.296 3.904h9.312c.277 0 .501.096.672.288a.821.821 0 0 1 .288.64c0 .256-.096.48-.288.672-.171.171-.395.256-.672.256h-11.2a46.39 46.39 0 0 1-2.624 2.304 48.831 48.831 0 0 1-2.816 2.112v3.328a92.928 92.928 0 0 0 3.872-1.184c1.365-.448 2.709-.917 4.032-1.408a57.259 57.259 0 0 0 3.616-1.472c.299-.128.576-.16.832-.096.277.043.48.203.608.48.149.299.171.576.064.832-.085.256-.267.448-.544.576a78.402 78.402 0 0 1-3.968 1.536c-1.429.512-2.88.992-4.352 1.44-1.451.427-2.837.811-4.16 1.152v1.152c0 .832.107 1.472.32 1.92.213.427.64.725 1.28.896.64.171 1.6.256 2.88.256h3.136c1.173 0 2.101-.085 2.784-.256.704-.192 1.227-.523 1.568-.992.363-.491.619-1.163.768-2.016a.867.867 0 0 1 .448-.64c.256-.171.544-.213.864-.128.597.171.843.576.736 1.216-.277 1.792-.971 3.029-2.08 3.712-1.109.704-2.805 1.056-5.088 1.056h-3.136Zm-6.816 30.88a4.672 4.672 0 0 1-2.496-.576c-.789-.448-1.461-1.131-2.016-2.048-.533-.875-.992-2.037-1.376-3.488a32.905 32.905 0 0 1-.864-4.736 30.122 30.122 0 0 1-.096-4.992 1.08 1.08 0 0 1 .32-.704.953.953 0 0 1 .736-.256.944.944 0 0 1 .704.352.953.953 0 0 1 .256.736 34.209 34.209 0 0 0 .064 4.672c.128 1.536.363 2.944.704 4.224.341 1.28.757 2.325 1.248 3.136.341.533.736.949 1.184 1.248.448.277.928.405 1.44.384 1.323-.021 2.379-1.227 3.168-3.616a.991.991 0 0 1 .48-.608c.256-.128.523-.149.8-.064.277.085.48.256.608.512a.883.883 0 0 1 .032.768c-.597 1.749-1.333 3.019-2.208 3.808-.853.768-1.749 1.184-2.688 1.248Zm17.344-5.632a1.145 1.145 0 0 1-.8-.032 1.13 1.13 0 0 1-.512-.576c-.533-1.365-1.312-2.688-2.336-3.968-1.003-1.28-2.101-2.315-3.296-3.104a.917.917 0 0 1-.384-.64c-.043-.299.021-.555.192-.768.192-.235.416-.352.672-.352.277-.021.544.053.8.224.811.512 1.632 1.205 2.464 2.08a19.58 19.58 0 0 1 2.272 2.816c.704 1.003 1.227 2.005 1.568 3.008a.95.95 0 0 1-.032.8 1.122 1.122 0 0 1-.608.512Zm.992 26.24a.99.99 0 0 1-.8.224 1.057 1.057 0 0 1-.704-.384 20.116 20.116 0 0 0-1.472-1.728 54.418 54.418 0 0 0-1.888-1.92 19.858 19.858 0 0 0-1.632-1.536 1.035 1.035 0 0 1-.384-.672.901.901 0 0 1 .224-.768c.213-.235.459-.352.736-.352.277-.021.523.053.736.224.533.427 1.141.971 1.824 1.632a57.883 57.883 0 0 1 1.984 2.016c.64.661 1.163 1.248 1.568 1.76.171.235.235.501.192.8a.907.907 0 0 1-.384.704ZM470.604 918.4c-.747.213-1.227.021-1.44-.576a.958.958 0 0 1 .064-.768c.149-.235.395-.395.736-.48 3.349-.747 5.963-1.792 7.84-3.136 1.899-1.365 3.211-3.253 3.936-5.664h-11.808a.958.958 0 0 1-.704-.288.978.978 0 0 1-.256-.672c0-.256.085-.48.256-.672a.958.958 0 0 1 .704-.288h12.256c.107-.555.181-1.141.224-1.76.064-.64.107-1.291.128-1.952a95.668 95.668 0 0 1-4.32.288c-1.429.064-2.805.107-4.128.128-.683 0-1.045-.32-1.088-.96a.742.742 0 0 1 .288-.672c.213-.192.459-.288.736-.288 1.259 0 2.635-.032 4.128-.096 1.515-.085 3.061-.192 4.64-.32 1.579-.149 3.104-.32 4.576-.512a50.209 50.209 0 0 0 4-.672h.064c-.32-.064-.544-.256-.672-.576a83.245 83.245 0 0 1-.64-1.664 16.897 16.897 0 0 0-.736-1.76h-3.2a31.63 31.63 0 0 1-1.152 1.76 14.754 14.754 0 0 1-1.152 1.472 1.332 1.332 0 0 1-.704.416 1.08 1.08 0 0 1-.768-.16.889.889 0 0 1-.352-.64.953.953 0 0 1 .256-.736 20.415 20.415 0 0 0 1.664-2.24 32.137 32.137 0 0 0 1.536-2.624c.469-.917.843-1.749 1.12-2.496.107-.277.277-.469.512-.576a.959.959 0 0 1 .768 0 .867.867 0 0 1 .576.512.884.884 0 0 1 0 .736c-.149.427-.341.875-.576 1.344l-.672 1.408h9.504c.256 0 .469.096.64.288a.868.868 0 0 1 .256.64.868.868 0 0 1-.256.64.868.868 0 0 1-.64.256H491.5c.213.448.427.917.64 1.408.213.491.384.907.512 1.248.107.277.107.533 0 .768-.085.235-.267.405-.544.512-.021 0-.043.011-.064.032h-.064c.384.064.64.299.768.704a.972.972 0 0 1-.128.768c-.149.235-.373.373-.672.416a94.014 94.014 0 0 1-3.552.608c-1.259.171-2.549.331-3.872.48a30.706 30.706 0 0 1-.128 2.016 16.97 16.97 0 0 1-.224 1.856h12.8c.277 0 .501.096.672.288a.978.978 0 0 1 .256.672c0 .256-.085.48-.256.672a.857.857 0 0 1-.672.288h-11.744c1.387 2.283 3.104 4.117 5.152 5.504 2.069 1.387 4.363 2.421 6.88 3.104a.976.976 0 0 1 .64.512.946.946 0 0 1 .064.832.876.876 0 0 1-.64.576 1.72 1.72 0 0 1-.928 0c-2.795-.896-5.301-2.123-7.52-3.68-2.197-1.557-3.968-3.637-5.312-6.24-.832 2.645-2.293 4.757-4.384 6.336-2.069 1.579-4.928 2.805-8.576 3.68Zm8.16-19.168a1.286 1.286 0 0 1-.8 0 .989.989 0 0 1-.512-.544 15.317 15.317 0 0 0-.448-1.088 61.792 61.792 0 0 0-.544-1.376 15.18 15.18 0 0 0-.48-1.184h-2.176c-.448.64-.917 1.259-1.408 1.856a22.346 22.346 0 0 1-1.44 1.664 1.164 1.164 0 0 1-.704.384 1.125 1.125 0 0 1-.768-.224 1.024 1.024 0 0 1-.352-.704c0-.277.096-.501.288-.672a17.646 17.646 0 0 0 2.016-2.368 31.455 31.455 0 0 0 1.856-2.784c.576-.939 1.013-1.771 1.312-2.496.107-.277.288-.459.544-.544a.959.959 0 0 1 .768 0c.277.085.459.256.544.512a.959.959 0 0 1 0 .768 27.908 27.908 0 0 1-1.472 2.784h7.68c.235 0 .437.096.608.288a.821.821 0 0 1 .288.64.821.821 0 0 1-.288.64.83.83 0 0 1-.608.256h-4.64c.235.469.469.992.704 1.568.256.555.448 1.013.576 1.376.107.277.107.533 0 .768a1.017 1.017 0 0 1-.544.48Zm11.328 53.888c-1.941.021-3.349-.416-4.224-1.312-.875-.896-1.173-2.443-.896-4.64.085-.747 0-1.312-.256-1.696a1.578 1.578 0 0 0-1.056-.704c-.427-.107-.885-.085-1.376.064a3.2 3.2 0 0 0-1.28.736c-.896.853-1.792 1.717-2.688 2.592-.896.853-1.728 1.632-2.496 2.336a115.6 115.6 0 0 1-1.92 1.728 1.068 1.068 0 0 1-.736.288.913.913 0 0 1-.704-.32 1.068 1.068 0 0 1-.288-.736c0-.299.107-.533.32-.704a61.742 61.742 0 0 0 2.016-1.792c.811-.747 1.685-1.557 2.624-2.432l2.784-2.656c.917-.875 1.749-1.685 2.496-2.432.747-.747 1.323-1.333 1.728-1.76.768-.853 1.184-1.6 1.248-2.24.064-.661-.181-1.152-.736-1.472-.533-.32-1.312-.395-2.336-.224l-.8.16-1.504.224c-.576.085-1.152.181-1.728.288-.576.085-1.077.171-1.504.256a24.61 24.61 0 0 0-.8.128 1.226 1.226 0 0 1-.768-.192.917.917 0 0 1-.384-.64c-.043-.299.011-.555.16-.768a.992.992 0 0 1 .672-.416l1.088-.16 1.952-.288a62.885 62.885 0 0 1 2.048-.32c.64-.107 1.067-.171 1.28-.192 1.323-.192 2.411-.117 3.264.224.875.32 1.493.821 1.856 1.504s.427 1.483.192 2.4c-.213.917-.747 1.856-1.6 2.816-.256.277-.576.629-.96 1.056-.384.405-.789.821-1.216 1.248a3.216 3.216 0 0 1 1.792.32c.555.277.992.736 1.312 1.376.32.619.427 1.429.32 2.432-.107 1.067-.085 1.888.064 2.464.171.576.501.971.992 1.184.491.192 1.152.288 1.984.288.64 0 1.344-.053 2.112-.16a43.54 43.54 0 0 0 2.496-.416 1.08 1.08 0 0 1 .768.16c.235.149.373.373.416.672a.977.977 0 0 1-.16.736.993.993 0 0 1-.64.448c-.981.192-1.899.331-2.752.416-.832.085-1.557.128-2.176.128Zm-3.872-22.4a45.49 45.49 0 0 1-2.848-.448 37.12 37.12 0 0 1-2.944-.736 31.189 31.189 0 0 1-2.4-.8 1.103 1.103 0 0 1-.576-.544.959.959 0 0 1 0-.768c.107-.277.277-.469.512-.576.256-.107.523-.107.8 0 1.024.405 2.219.789 3.584 1.152 1.365.341 2.72.576 4.064.704a.944.944 0 0 1 .704.352.856.856 0 0 1 .224.736 1.024 1.024 0 0 1-.352.704 1.062 1.062 0 0 1-.768.224Zm-2.624 57.888c-1.728 0-3.072-.363-4.032-1.088-.96-.725-1.44-1.717-1.44-2.976s.469-2.24 1.408-2.944c.939-.704 2.112-.971 3.52-.8 1.109.128 1.941.501 2.496 1.12.576.597.896 1.301.96 2.112.085.811-.064 1.621-.448 2.432 1.451-.299 2.571-.928 3.36-1.888.811-.981 1.216-2.24 1.216-3.776 0-1.067-.288-1.995-.864-2.784-.555-.789-1.333-1.376-2.336-1.76-1.003-.384-2.155-.523-3.456-.416-1.301.085-2.699.469-4.192 1.152-1.472.661-2.965 1.675-4.48 3.04a.996.996 0 0 1-.768.256 1.035 1.035 0 0 1-.672-.384 1.013 1.013 0 0 1-.224-.736c.021-.299.139-.523.352-.672a66.199 66.199 0 0 0 3.072-2.368 126.8 126.8 0 0 0 3.072-2.656 131.41 131.41 0 0 0 2.88-2.592 88.627 88.627 0 0 0 2.336-2.24c1.003-.96 1.344-1.76 1.024-2.4-.299-.661-1.152-.917-2.56-.768-.747.085-1.621.192-2.624.32l-2.752.352a.906.906 0 0 1-.736-.192 1.035 1.035 0 0 1-.384-.672.906.906 0 0 1 .192-.736.882.882 0 0 1 .672-.384 44.65 44.65 0 0 1 1.696-.192 58.86 58.86 0 0 1 2.016-.224c.683-.064 1.291-.117 1.824-.16 1.323-.107 2.379.032 3.168.416.789.363 1.312.885 1.568 1.568.256.661.235 1.397-.064 2.208-.277.789-.832 1.557-1.664 2.304-.747.64-1.611 1.387-2.592 2.24-.981.853-1.941 1.685-2.88 2.496 1.408-.555 2.784-.821 4.128-.8 1.344.021 2.56.309 3.648.864 1.109.533 1.984 1.301 2.624 2.304.661 1.003.992 2.208.992 3.616 0 2.581-.811 4.533-2.432 5.856-1.6 1.301-3.808 1.952-6.624 1.952Zm-.16-1.888h.448c.661-.981.875-1.867.64-2.656-.213-.811-.789-1.269-1.728-1.376-.789-.107-1.44.011-1.952.352-.491.341-.736.853-.736 1.536 0 1.387 1.109 2.101 3.328 2.144Z" class="èããç¬ãã"/>
        <path fill="#000" d="M286.863 810c-.672 0-1.008-.396-1.008-1.188v-5.148h-9.324c-.816 0-1.224-.276-1.224-.828 0-.312.036-.576.108-.792.072-.216.18-.444.324-.684l9.792-15.912c.192-.312.384-.516.576-.612.216-.12.48-.18.792-.18.648 0 .972.396.972 1.188v15.84h2.628c.792 0 1.188.324 1.188.972 0 .672-.336 1.008-1.008 1.008h-2.808v5.148c0 .792-.336 1.188-1.008 1.188Zm-9.144-8.316h8.136V788.4l-8.136 13.284Zm-1.383 45.9c-.312 0-.576-.108-.792-.324a1.077 1.077 0 0 1-.324-.792V836.1a615.674 615.674 0 0 0-2.34 3.24l-2.304 3.312c-.168.24-.42.384-.756.432a1.235 1.235 0 0 1-.828-.216 1.318 1.318 0 0 1-.468-.756 1.022 1.022 0 0 1 .216-.828c1.056-1.44 2.124-2.904 3.204-4.392a105.431 105.431 0 0 1 3.276-4.284v-5.688c-.168.024-.36.06-.576.108-.192.048-.42.108-.684.18-.312.096-.72.228-1.224.396s-1.032.348-1.584.54a43.91 43.91 0 0 0-1.476.54 1.17 1.17 0 0 1-.9 0 1.096 1.096 0 0 1-.612-.612 1.332 1.332 0 0 1 0-.864c.12-.312.324-.516.612-.612a62.494 62.494 0 0 1 2.34-.72 110.09 110.09 0 0 1 2.232-.684c.72-.192 1.344-.3 1.872-.324v-6.156c0-.312.108-.576.324-.792.216-.216.48-.324.792-.324.336 0 .612.108.828.324.216.216.324.48.324.792v6.732c.072.072.144.156.216.252.096.072.18.156.252.252.552.744.6 1.872.144 3.384 1.608-1.68 3.252-3.048 4.932-4.104 1.704-1.056 3.48-1.584 5.328-1.584 1.536 0 2.94.36 4.212 1.08 1.296.72 2.328 1.848 3.096 3.384.792 1.536 1.188 3.528 1.188 5.976 0 2.232-.372 4.224-1.116 5.976 1.056.936 2.052 2.04 2.988 3.312.192.24.264.516.216.828a.993.993 0 0 1-.432.756c-.24.192-.528.264-.864.216a1.16 1.16 0 0 1-.756-.432 41.186 41.186 0 0 0-1.116-1.404 11.58 11.58 0 0 0-1.152-1.26 8.23 8.23 0 0 1-2.628 2.448c-1.032.576-2.172.864-3.42.864-1.512 0-2.736-.384-3.672-1.152-.912-.792-1.368-1.848-1.368-3.168 0-1.368.468-2.436 1.404-3.204.96-.768 2.172-1.152 3.636-1.152.864 0 1.74.168 2.628.504.912.312 1.812.78 2.7 1.404.432-1.296.648-2.808.648-4.536 0-2.064-.3-3.696-.9-4.896-.576-1.2-1.332-2.052-2.268-2.556a5.988 5.988 0 0 0-2.988-.792c-1.296 0-2.568.324-3.816.972-1.224.624-2.424 1.488-3.6 2.592a38.496 38.496 0 0 0-3.492 3.78v13.284c0 .312-.108.576-.324.792-.216.216-.492.324-.828.324Zm12.24-4.32c.912 0 1.74-.24 2.484-.72.768-.48 1.416-1.14 1.944-1.98a10.724 10.724 0 0 0-2.232-1.296 5.475 5.475 0 0 0-2.196-.468c-.912 0-1.62.204-2.124.612-.48.408-.72.96-.72 1.656 0 1.464.948 2.196 2.844 2.196Zm-17.82 38.592a1.096 1.096 0 0 1-.612-.612 1.288 1.288 0 0 1 .036-.9c.408-.864.924-1.968 1.548-3.312.624-1.344 1.32-2.832 2.088-4.464.792-1.632 1.596-3.3 2.412-5.004.84-1.704 1.644-3.348 2.412-4.932a361.084 361.084 0 0 1 2.16-4.32 147.908 147.908 0 0 1 1.584-3.096.976.976 0 0 1 .684-.54c.312-.096.6-.06.864.108.264.168.432.408.504.72a1 1 0 0 1-.072.828c-.408.72-.96 1.764-1.656 3.132a361.847 361.847 0 0 0-2.304 4.536 532.02 532.02 0 0 0-2.556 5.184 9.388 9.388 0 0 1 2.304-1.332c.792-.336 1.56-.504 2.304-.504 2.016 0 3.384.612 4.104 1.836.72 1.2.768 2.916.144 5.148-.48 1.728-.492 2.964-.036 3.708.456.72 1.308 1.08 2.556 1.08 1.2 0 2.268-.432 3.204-1.296.936-.888 1.824-2.46 2.664-4.716.12-.288.324-.492.612-.612a.994.994 0 0 1 .864-.036.971.971 0 0 1 .612.576c.144.288.156.588.036.9-.96 2.544-2.076 4.428-3.348 5.652-1.272 1.2-2.82 1.8-4.644 1.8-1.32 0-2.424-.276-3.312-.828-.864-.576-1.44-1.428-1.728-2.556-.264-1.128-.156-2.556.324-4.284.408-1.44.456-2.508.144-3.204-.312-.696-1.068-1.044-2.268-1.044-1.368 0-2.712.468-4.032 1.404-1.32.936-2.472 2.436-3.456 4.5l-1.476 3.24-1.152 2.664a1.09 1.09 0 0 1-.648.612 1.195 1.195 0 0 1-.864-.036Z" class="4ã­ã"/>
      </g>
    </g>
  </g>
</svg>
